<?xml version="1.0" encoding="utf-8"?>
<svg version="1.1" xmlns:xlink="http://www.w3.org/1999/xlink" width="18px" height="22px" xmlns="http://www.w3.org/2000/svg">
  <defs>
    <pattern id="BGPattern" patternUnits="userSpaceOnUse" alignment="0 0" imageRepeat="None" />
    <mask fill="white" id="Clip206">
      <path d="M 9 18.899999999999977  L 13.950000000000003 13.949999999999989  C 15.262600164805363 12.63726588956797  15.999999999999986 10.856896747590895  15.999999999999986 9.00050507627293  C 15.999999999999986 5.134511827457374  12.865993248815556 2.0005050762729297  9 2.0005050762729297  C 5.134006751184444 2.0005050762729297  2 5.134511827457374  2 9.00050507627293  C 2 10.856896747590895  2.737399835194637 12.63726588956797  4.049999999999997 13.949999999999989  L 9 18.899999999999977  Z M 15.364000000000004 15.364000000000004  L 9 21.72800000000001  L 2.6359999999999957 15.364000000000004  C 0.9481964330208257 13.676175762509814  0 11.387007250227638  0 9.000077938880764  C 0 4.029515190403629  4.0294372515228645 7.793888076434996E-05  9 7.793888076434996E-05  C 13.970562748477136 7.793888076434996E-05  18 4.029515190403629  18 9.000077938880764  C 18 11.387007250227638  17.051803566979174 13.676175762509814  15.364000000000004 15.364000000000004  Z M 10 4  L 10 9  L 14 9  L 14 11  L 8 11  L 8 4  L 10 4  Z " fill-rule="evenodd" />
    </mask>
  </defs>
  <g transform="matrix(1 0 0 1 -56 -274 )">
    <path d="M 9 18.899999999999977  L 13.950000000000003 13.949999999999989  C 15.262600164805363 12.63726588956797  15.999999999999986 10.856896747590895  15.999999999999986 9.00050507627293  C 15.999999999999986 5.134511827457374  12.865993248815556 2.0005050762729297  9 2.0005050762729297  C 5.134006751184444 2.0005050762729297  2 5.134511827457374  2 9.00050507627293  C 2 10.856896747590895  2.737399835194637 12.63726588956797  4.049999999999997 13.949999999999989  L 9 18.899999999999977  Z M 15.364000000000004 15.364000000000004  L 9 21.72800000000001  L 2.6359999999999957 15.364000000000004  C 0.9481964330208257 13.676175762509814  0 11.387007250227638  0 9.000077938880764  C 0 4.029515190403629  4.0294372515228645 7.793888076434996E-05  9 7.793888076434996E-05  C 13.970562748477136 7.793888076434996E-05  18 4.029515190403629  18 9.000077938880764  C 18 11.387007250227638  17.051803566979174 13.676175762509814  15.364000000000004 15.364000000000004  Z M 10 4  L 10 9  L 14 9  L 14 11  L 8 11  L 8 4  L 10 4  Z " fill-rule="nonzero" fill="rgba(37, 97, 239, 1)" stroke="none" transform="matrix(1 0 0 1 56 274 )" class="fill" />
    <path d="M 9 18.899999999999977  L 13.950000000000003 13.949999999999989  C 15.262600164805363 12.63726588956797  15.999999999999986 10.856896747590895  15.999999999999986 9.00050507627293  C 15.999999999999986 5.134511827457374  12.865993248815556 2.0005050762729297  9 2.0005050762729297  C 5.134006751184444 2.0005050762729297  2 5.134511827457374  2 9.00050507627293  C 2 10.856896747590895  2.737399835194637 12.63726588956797  4.049999999999997 13.949999999999989  L 9 18.899999999999977  Z " stroke-width="0" stroke-dasharray="0" stroke="rgba(255, 255, 255, 0)" fill="none" transform="matrix(1 0 0 1 56 274 )" class="stroke" mask="url(#Clip206)" />
    <path d="M 15.364000000000004 15.364000000000004  L 9 21.72800000000001  L 2.6359999999999957 15.364000000000004  C 0.9481964330208257 13.676175762509814  0 11.387007250227638  0 9.000077938880764  C 0 4.029515190403629  4.0294372515228645 7.793888076434996E-05  9 7.793888076434996E-05  C 13.970562748477136 7.793888076434996E-05  18 4.029515190403629  18 9.000077938880764  C 18 11.387007250227638  17.051803566979174 13.676175762509814  15.364000000000004 15.364000000000004  Z " stroke-width="0" stroke-dasharray="0" stroke="rgba(255, 255, 255, 0)" fill="none" transform="matrix(1 0 0 1 56 274 )" class="stroke" mask="url(#Clip206)" />
    <path d="M 10 4  L 10 9  L 14 9  L 14 11  L 8 11  L 8 4  L 10 4  Z " stroke-width="0" stroke-dasharray="0" stroke="rgba(255, 255, 255, 0)" fill="none" transform="matrix(1 0 0 1 56 274 )" class="stroke" mask="url(#Clip206)" />
  </g>
</svg>