<?xml version="1.0" encoding="utf-8"?>
<svg version="1.1" xmlns:xlink="http://www.w3.org/1999/xlink" width="18px" height="18px" viewBox="173 15 18 18" xmlns="http://www.w3.org/2000/svg">
  <defs>
    <pattern id="BGPattern" patternUnits="userSpaceOnUse" alignment="0 0" imageRepeat="None" />
    <mask fill="white" id="Clip202">
      <path d="M 4.5 0  L 6.300000000000011 0  L 6.300000000000011 1.8000000000000114  L 11.699999999999989 1.8000000000000114  L 11.699999999999989 0  L 13.5 0  L 13.5 1.8000000000000114  L 17.100000000000023 1.8000000000000114  C 17.597056274847716 1.8000000000000114  18 2.202943725152295  18 2.6999999999999886  L 18 17.100000000000023  C 18 17.597056274847716  17.597056274847716 18  17.100000000000023 18  L 0.8999999999999773 18  C 0.4029437251522836 18  0 17.597056274847716  0 17.100000000000023  L 0 2.6999999999999886  C 0 2.202943725152295  0.4029437251522836 1.8000000000000114  0.8999999999999773 1.8000000000000114  L 4.5 1.8000000000000114  L 4.5 0  Z M 16.19999999999999 16  L 16.19999999999999 8.100000000000023  L 1.8000000000000114 8.100000000000023  L 1.8000000000000114 16  L 16.19999999999999 16  Z M 11.732399999999984 9.12239999999997  L 13.004999999999995 10.394999999999982  L 8.550000000000011 14.850000000000023  L 5.367599999999982 11.667599999999993  L 6.641999999999996 10.394999999999982  L 8.550900000000013 12.3048  L 11.733299999999986 9.122400000000027  Z M 4.5 4.5  L 4.5 3.6000000000000227  L 1.8000000000000114 3.6000000000000227  L 1.8000000000000114 6.300000000000011  L 16.19999999999999 6.300000000000011  L 16.19999999999999 3.6000000000000227  L 13.5 3.6000000000000227  L 13.5 4.5  L 11.699999999999989 4.5  L 11.699999999999989 3.6000000000000227  L 6.300000000000011 3.6000000000000227  L 6.300000000000011 4.5  L 4.5 4.5  Z " fill-rule="evenodd" />
    </mask>
  </defs>
  <g transform="matrix(1 0 0 1 -173 -15 )">
    <path d="M 4.5 0  L 6.300000000000011 0  L 6.300000000000011 1.8000000000000114  L 11.699999999999989 1.8000000000000114  L 11.699999999999989 0  L 13.5 0  L 13.5 1.8000000000000114  L 17.100000000000023 1.8000000000000114  C 17.597056274847716 1.8000000000000114  18 2.202943725152295  18 2.6999999999999886  L 18 17.100000000000023  C 18 17.597056274847716  17.597056274847716 18  17.100000000000023 18  L 0.8999999999999773 18  C 0.4029437251522836 18  0 17.597056274847716  0 17.100000000000023  L 0 2.6999999999999886  C 0 2.202943725152295  0.4029437251522836 1.8000000000000114  0.8999999999999773 1.8000000000000114  L 4.5 1.8000000000000114  L 4.5 0  Z M 16.19999999999999 16  L 16.19999999999999 8.100000000000023  L 1.8000000000000114 8.100000000000023  L 1.8000000000000114 16  L 16.19999999999999 16  Z M 11.732399999999984 9.12239999999997  L 13.004999999999995 10.394999999999982  L 8.550000000000011 14.850000000000023  L 5.367599999999982 11.667599999999993  L 6.641999999999996 10.394999999999982  L 8.550900000000013 12.3048  L 11.733299999999986 9.122400000000027  Z M 4.5 4.5  L 4.5 3.6000000000000227  L 1.8000000000000114 3.6000000000000227  L 1.8000000000000114 6.300000000000011  L 16.19999999999999 6.300000000000011  L 16.19999999999999 3.6000000000000227  L 13.5 3.6000000000000227  L 13.5 4.5  L 11.699999999999989 4.5  L 11.699999999999989 3.6000000000000227  L 6.300000000000011 3.6000000000000227  L 6.300000000000011 4.5  L 4.5 4.5  Z " fill-rule="nonzero" fill="#999999" stroke="none" transform="matrix(1 0 0 1 173 15 )" class="fill" />
    <path d="M 4.5 0  L 6.300000000000011 0  L 6.300000000000011 1.8000000000000114  L 11.699999999999989 1.8000000000000114  L 11.699999999999989 0  L 13.5 0  L 13.5 1.8000000000000114  L 17.100000000000023 1.8000000000000114  C 17.597056274847716 1.8000000000000114  18 2.202943725152295  18 2.6999999999999886  L 18 17.100000000000023  C 18 17.597056274847716  17.597056274847716 18  17.100000000000023 18  L 0.8999999999999773 18  C 0.4029437251522836 18  0 17.597056274847716  0 17.100000000000023  L 0 2.6999999999999886  C 0 2.202943725152295  0.4029437251522836 1.8000000000000114  0.8999999999999773 1.8000000000000114  L 4.5 1.8000000000000114  L 4.5 0  Z " stroke-width="0" stroke-dasharray="0" stroke="rgba(255, 255, 255, 0)" fill="none" transform="matrix(1 0 0 1 173 15 )" class="stroke" mask="url(#Clip202)" />
    <path d="M 16.19999999999999 16  L 16.19999999999999 8.100000000000023  L 1.8000000000000114 8.100000000000023  L 1.8000000000000114 16  L 16.19999999999999 16  Z " stroke-width="0" stroke-dasharray="0" stroke="rgba(255, 255, 255, 0)" fill="none" transform="matrix(1 0 0 1 173 15 )" class="stroke" mask="url(#Clip202)" />
    <path d="M 11.732399999999984 9.12239999999997  L 13.004999999999995 10.394999999999982  L 8.550000000000011 14.850000000000023  L 5.367599999999982 11.667599999999993  L 6.641999999999996 10.394999999999982  L 8.550900000000013 12.3048  L 11.733299999999986 9.122400000000027  Z " stroke-width="0" stroke-dasharray="0" stroke="rgba(255, 255, 255, 0)" fill="none" transform="matrix(1 0 0 1 173 15 )" class="stroke" mask="url(#Clip202)" />
    <path d="M 4.5 4.5  L 4.5 3.6000000000000227  L 1.8000000000000114 3.6000000000000227  L 1.8000000000000114 6.300000000000011  L 16.19999999999999 6.300000000000011  L 16.19999999999999 3.6000000000000227  L 13.5 3.6000000000000227  L 13.5 4.5  L 11.699999999999989 4.5  L 11.699999999999989 3.6000000000000227  L 6.300000000000011 3.6000000000000227  L 6.300000000000011 4.5  L 4.5 4.5  Z " stroke-width="0" stroke-dasharray="0" stroke="rgba(255, 255, 255, 0)" fill="none" transform="matrix(1 0 0 1 173 15 )" class="stroke" mask="url(#Clip202)" />
  </g>
</svg>
