<?xml version="1.0" encoding="utf-8"?>
<svg version="1.1" xmlns:xlink="http://www.w3.org/1999/xlink" width="20px" height="22px" xmlns="http://www.w3.org/2000/svg">
  <defs>
    <pattern id="BGPattern" patternUnits="userSpaceOnUse" alignment="0 0" imageRepeat="None" />
    <mask fill="white" id="Clip242">
      <path d="M 15.031055900621112 19.875776397515523  L 15.031055900621112 17.888198757763945  L 18 17.888198757763945  L 18 3.9751552795031024  L 15.031055900621112 3.9751552795031024  L 15.031055900621112 1.9875776397515565  L 19.00621118012421 1.9875776397515565  C 19.555065589893957 1.9875776397515565  20 2.432512049857582  20 2.9813664596273277  L 20 18.881987577639734  C 20 19.43084198740945  19.555065589893957 19.875776397515523  19.00621118012421 19.875776397515523  L 15.031055900621112 19.875776397515523  Z M 0.9778881987577677 1.8653416149068287  L 13.469813664596273 0.08149068322981279  C 13.493183846278313 0.0781381447993823  13.516763251136723 0.07645548144668268  13.540372675224972 0.07645548144668268  C 13.814799880109845 0.07645548144668268  14.037267085162853 0.2989226864997008  14.037267085162853 0.5733498913845736  C 14.037267085162853 0.573371977273105  14.037267083690352 0.5733940631799932  14 0.5734161490683327  L 14 21.289937888198722  C 14.037225508946364 21.564335691545246  13.814770483005617 21.786757017671405  13.540372676510017 21.786757017671405  C 13.517098276746864 21.786757017671405  13.493852635298296 21.785121770271203  13.470807453416157 21.78186335403725  L 0.9768944099378913 19.998012422360247  C 0.48712042799464683 19.92825741017036  0.12323456092340734 19.508877889331586  0.12322981366459729 19.014161490683207  L 0.12322981366459729 2.849192546583847  C 0.12323456092340379 2.3544761479354754  0.48712042799464683 1.93509662709668  0.9768944099378913 1.8653416149068287  Z M 12 2.2916770186335462  L 2.1118012422360195 3.7118012422360276  L 2.1118012422360195 18.15155279503105  L 12 19.57167701863353  L 12 2.2916770186335462  Z M 9.068322981366464 11.914534161490664  L 9.068322981366464 6.956521739130415  L 11.055900621118013 6.956521739130415  L 11.055900621118013 14.90683229813662  L 9.068322981366464 14.90683229813662  L 7.080745341614907 12.919254658385078  L 5.093167701863351 14.90683229813662  L 3.1055900621117978 14.90683229813662  L 3.1055900621117978 6.956521739130415  L 5.093167701863351 6.956521739130415  L 5.103105590062114 11.92546583850931  L 7.080745341614907 9.937888198757747  L 9.068322981366464 11.914534161490664  Z " fill-rule="evenodd" />
    </mask>
  </defs>
  <g transform="matrix(1 0 0 1 -20 -29 )">
    <path d="M 15.031055900621112 19.875776397515523  L 15.031055900621112 17.888198757763945  L 18 17.888198757763945  L 18 3.9751552795031024  L 15.031055900621112 3.9751552795031024  L 15.031055900621112 1.9875776397515565  L 19.00621118012421 1.9875776397515565  C 19.555065589893957 1.9875776397515565  20 2.432512049857582  20 2.9813664596273277  L 20 18.881987577639734  C 20 19.43084198740945  19.555065589893957 19.875776397515523  19.00621118012421 19.875776397515523  L 15.031055900621112 19.875776397515523  Z M 0.9778881987577677 1.8653416149068287  L 13.469813664596273 0.08149068322981279  C 13.493183846278313 0.0781381447993823  13.516763251136723 0.07645548144668268  13.540372675224972 0.07645548144668268  C 13.814799880109845 0.07645548144668268  14.037267085162853 0.2989226864997008  14.037267085162853 0.5733498913845736  C 14.037267085162853 0.573371977273105  14.037267083690352 0.5733940631799932  14 0.5734161490683327  L 14 21.289937888198722  C 14.037225508946364 21.564335691545246  13.814770483005617 21.786757017671405  13.540372676510017 21.786757017671405  C 13.517098276746864 21.786757017671405  13.493852635298296 21.785121770271203  13.470807453416157 21.78186335403725  L 0.9768944099378913 19.998012422360247  C 0.48712042799464683 19.92825741017036  0.12323456092340734 19.508877889331586  0.12322981366459729 19.014161490683207  L 0.12322981366459729 2.849192546583847  C 0.12323456092340379 2.3544761479354754  0.48712042799464683 1.93509662709668  0.9768944099378913 1.8653416149068287  Z M 12 2.2916770186335462  L 2.1118012422360195 3.7118012422360276  L 2.1118012422360195 18.15155279503105  L 12 19.57167701863353  L 12 2.2916770186335462  Z M 9.068322981366464 11.914534161490664  L 9.068322981366464 6.956521739130415  L 11.055900621118013 6.956521739130415  L 11.055900621118013 14.90683229813662  L 9.068322981366464 14.90683229813662  L 7.080745341614907 12.919254658385078  L 5.093167701863351 14.90683229813662  L 3.1055900621117978 14.90683229813662  L 3.1055900621117978 6.956521739130415  L 5.093167701863351 6.956521739130415  L 5.103105590062114 11.92546583850931  L 7.080745341614907 9.937888198757747  L 9.068322981366464 11.914534161490664  Z " fill-rule="nonzero" fill="rgba(37, 97, 239, 1)" stroke="none" transform="matrix(1 0 0 1 20 29 )" class="fill" />
    <path d="M 15.031055900621112 19.875776397515523  L 15.031055900621112 17.888198757763945  L 18 17.888198757763945  L 18 3.9751552795031024  L 15.031055900621112 3.9751552795031024  L 15.031055900621112 1.9875776397515565  L 19.00621118012421 1.9875776397515565  C 19.555065589893957 1.9875776397515565  20 2.432512049857582  20 2.9813664596273277  L 20 18.881987577639734  C 20 19.43084198740945  19.555065589893957 19.875776397515523  19.00621118012421 19.875776397515523  L 15.031055900621112 19.875776397515523  Z " stroke-width="0" stroke-dasharray="0" stroke="rgba(255, 255, 255, 0)" fill="none" transform="matrix(1 0 0 1 20 29 )" class="stroke" mask="url(#Clip242)" />
    <path d="M 0.9778881987577677 1.8653416149068287  L 13.469813664596273 0.08149068322981279  C 13.493183846278313 0.0781381447993823  13.516763251136723 0.07645548144668268  13.540372675224972 0.07645548144668268  C 13.814799880109845 0.07645548144668268  14.037267085162853 0.2989226864997008  14.037267085162853 0.5733498913845736  C 14.037267085162853 0.573371977273105  14.037267083690352 0.5733940631799932  14 0.5734161490683327  L 14 21.289937888198722  C 14.037225508946364 21.564335691545246  13.814770483005617 21.786757017671405  13.540372676510017 21.786757017671405  C 13.517098276746864 21.786757017671405  13.493852635298296 21.785121770271203  13.470807453416157 21.78186335403725  L 0.9768944099378913 19.998012422360247  C 0.48712042799464683 19.92825741017036  0.12323456092340734 19.508877889331586  0.12322981366459729 19.014161490683207  L 0.12322981366459729 2.849192546583847  C 0.12323456092340379 2.3544761479354754  0.48712042799464683 1.93509662709668  0.9768944099378913 1.8653416149068287  Z " stroke-width="0" stroke-dasharray="0" stroke="rgba(255, 255, 255, 0)" fill="none" transform="matrix(1 0 0 1 20 29 )" class="stroke" mask="url(#Clip242)" />
    <path d="M 12 2.2916770186335462  L 2.1118012422360195 3.7118012422360276  L 2.1118012422360195 18.15155279503105  L 12 19.57167701863353  L 12 2.2916770186335462  Z " stroke-width="0" stroke-dasharray="0" stroke="rgba(255, 255, 255, 0)" fill="none" transform="matrix(1 0 0 1 20 29 )" class="stroke" mask="url(#Clip242)" />
    <path d="M 9.068322981366464 11.914534161490664  L 9.068322981366464 6.956521739130415  L 11.055900621118013 6.956521739130415  L 11.055900621118013 14.90683229813662  L 9.068322981366464 14.90683229813662  L 7.080745341614907 12.919254658385078  L 5.093167701863351 14.90683229813662  L 3.1055900621117978 14.90683229813662  L 3.1055900621117978 6.956521739130415  L 5.093167701863351 6.956521739130415  L 5.103105590062114 11.92546583850931  L 7.080745341614907 9.937888198757747  L 9.068322981366464 11.914534161490664  Z " stroke-width="0" stroke-dasharray="0" stroke="rgba(255, 255, 255, 0)" fill="none" transform="matrix(1 0 0 1 20 29 )" class="stroke" mask="url(#Clip242)" />
  </g>
</svg>