<?xml version="1.0" encoding="utf-8"?>
<svg version="1.1" xmlns:xlink="http://www.w3.org/1999/xlink" width="20px" height="23px" xmlns="http://www.w3.org/2000/svg">
  <defs>
    <pattern id="BGPattern" patternUnits="userSpaceOnUse" alignment="0 0" imageRepeat="None" />
    <mask fill="white" id="Clip239">
      <path d="M 1.103333333333353 0  L 14.444444444444457 0  L 20 5.555555555555486  L 20 21.11999999999989  C 19.99938678698726 21.728920212937055  19.505587188371805 22.222222530990052  18.896666666666647 22  L 1.103333333333353 22  C 0.49617282652116046 22.21799130765197  0.00484266088875529 21.72715593574128  0 21.11999999999989  L 0 1.1022222222221956  C 0 0.49333333333328255  0.49444444444446844 0  1.103333333333353 0  Z M 10 10.555555555555486  C 11.534124305085527 10.555555555555486  12.777777777777771 9.311902082863242  12.777777777777771 7.777777777777714  C 12.777777777777771 6.243653472692188  11.534124305085527 5  10 5  C 8.465875694914473 5  7.2222222222222285 6.243653472692188  7.2222222222222285 7.777777777777714  C 7.2222222222222285 9.311902082863242  8.465875694914473 10.555555555555486  10 10.555555555555486  Z M 10 12.213567023221628  C 7.450233103544917 12.213567023221628  5.308893684960708 14.13219837159022  5.029999999999973 16.666666666666572  L 14.970000000000027 16.666666666666572  C 14.691106315039292 14.13219837159022  12.549766896455083 12.213567023221628  10 12.213567023221628  Z " fill-rule="evenodd" />
    </mask>
  </defs>
  <g transform="matrix(1 0 0 1 -95 -167 )">
    <path d="M 1.103333333333353 0  L 14.444444444444457 0  L 20 5.555555555555486  L 20 21.11999999999989  C 19.99938678698726 21.728920212937055  19.505587188371805 22.222222530990052  18.896666666666647 22  L 1.103333333333353 22  C 0.49617282652116046 22.21799130765197  0.00484266088875529 21.72715593574128  0 21.11999999999989  L 0 1.1022222222221956  C 0 0.49333333333328255  0.49444444444446844 0  1.103333333333353 0  Z M 10 10.555555555555486  C 11.534124305085527 10.555555555555486  12.777777777777771 9.311902082863242  12.777777777777771 7.777777777777714  C 12.777777777777771 6.243653472692188  11.534124305085527 5  10 5  C 8.465875694914473 5  7.2222222222222285 6.243653472692188  7.2222222222222285 7.777777777777714  C 7.2222222222222285 9.311902082863242  8.465875694914473 10.555555555555486  10 10.555555555555486  Z M 10 12.213567023221628  C 7.450233103544917 12.213567023221628  5.308893684960708 14.13219837159022  5.029999999999973 16.666666666666572  L 14.970000000000027 16.666666666666572  C 14.691106315039292 14.13219837159022  12.549766896455083 12.213567023221628  10 12.213567023221628  Z " fill-rule="nonzero" fill="rgba(250, 116, 107, 1)" stroke="none" transform="matrix(1 0 0 1 95 167 )" class="fill" />
    <path d="M 1.103333333333353 0  L 14.444444444444457 0  L 20 5.555555555555486  L 20 21.11999999999989  C 19.99938678698726 21.728920212937055  19.505587188371805 22.222222530990052  18.896666666666647 22  L 1.103333333333353 22  C 0.49617282652116046 22.21799130765197  0.00484266088875529 21.72715593574128  0 21.11999999999989  L 0 1.1022222222221956  C 0 0.49333333333328255  0.49444444444446844 0  1.103333333333353 0  Z " stroke-width="0" stroke-dasharray="0" stroke="rgba(255, 255, 255, 0)" fill="none" transform="matrix(1 0 0 1 95 167 )" class="stroke" mask="url(#Clip239)" />
    <path d="M 10 10.555555555555486  C 11.534124305085527 10.555555555555486  12.777777777777771 9.311902082863242  12.777777777777771 7.777777777777714  C 12.777777777777771 6.243653472692188  11.534124305085527 5  10 5  C 8.465875694914473 5  7.2222222222222285 6.243653472692188  7.2222222222222285 7.777777777777714  C 7.2222222222222285 9.311902082863242  8.465875694914473 10.555555555555486  10 10.555555555555486  Z " stroke-width="0" stroke-dasharray="0" stroke="rgba(255, 255, 255, 0)" fill="none" transform="matrix(1 0 0 1 95 167 )" class="stroke" mask="url(#Clip239)" />
    <path d="M 10 12.213567023221628  C 7.450233103544917 12.213567023221628  5.308893684960708 14.13219837159022  5.029999999999973 16.666666666666572  L 14.970000000000027 16.666666666666572  C 14.691106315039292 14.13219837159022  12.549766896455083 12.213567023221628  10 12.213567023221628  Z " stroke-width="0" stroke-dasharray="0" stroke="rgba(255, 255, 255, 0)" fill="none" transform="matrix(1 0 0 1 95 167 )" class="stroke" mask="url(#Clip239)" />
  </g>
</svg>