<?xml version="1.0" encoding="utf-8"?>
<svg version="1.1" xmlns:xlink="http://www.w3.org/1999/xlink" width="4px" height="14px" xmlns="http://www.w3.org/2000/svg">
  <defs>
    <pattern id="BGPattern" patternUnits="userSpaceOnUse" alignment="0 0" imageRepeat="None" />
    <mask fill="white" id="Clip241">
      <path d="M 3.111111111111086 1.5555555555555571  C 3.111111111111086 0.6999999999999993  2.411111111111097 0  1.555555555555543 0  C 0.6999999999999886 0  0 0.6999999999999993  0 1.5555555555555571  C 0 2.4111111111111114  0.6999999999999886 3.1111111111111143  1.555555555555543 3.1111111111111143  C 2.411111111111097 3.1111111111111143  3.111111111111086 2.4111111111111114  3.111111111111086 1.5555555555555571  Z M 3.111111111111086 12.444444444444443  C 3.111111111111086 11.588888888888889  2.411111111111097 10.888888888888886  1.555555555555543 10.888888888888886  C 0.6999999999999886 10.888888888888886  0 11.588888888888889  0 12.444444444444443  C 0 13.300000000000004  0.6999999999999886 14  1.555555555555543 14  C 2.411111111111097 14  3.111111111111086 13.300000000000004  3.111111111111086 12.444444444444443  Z M 3.111111111111086 7  C 3.111111111111086 6.144444444444446  2.411111111111097 5.444444444444443  1.555555555555543 5.444444444444443  C 0.6999999999999886 5.444444444444443  0 6.144444444444446  0 7  C 0 7.855555555555554  0.6999999999999886 8.555555555555557  1.555555555555543 8.555555555555557  C 2.411111111111097 8.555555555555557  3.111111111111086 7.855555555555554  3.111111111111086 7  Z " fill-rule="evenodd" />
    </mask>
  </defs>
  <g transform="matrix(1 0 0 1 -312 -16 )">
    <path d="M 3.111111111111086 1.5555555555555571  C 3.111111111111086 0.6999999999999993  2.411111111111097 0  1.555555555555543 0  C 0.6999999999999886 0  0 0.6999999999999993  0 1.5555555555555571  C 0 2.4111111111111114  0.6999999999999886 3.1111111111111143  1.555555555555543 3.1111111111111143  C 2.411111111111097 3.1111111111111143  3.111111111111086 2.4111111111111114  3.111111111111086 1.5555555555555571  Z M 3.111111111111086 12.444444444444443  C 3.111111111111086 11.588888888888889  2.411111111111097 10.888888888888886  1.555555555555543 10.888888888888886  C 0.6999999999999886 10.888888888888886  0 11.588888888888889  0 12.444444444444443  C 0 13.300000000000004  0.6999999999999886 14  1.555555555555543 14  C 2.411111111111097 14  3.111111111111086 13.300000000000004  3.111111111111086 12.444444444444443  Z M 3.111111111111086 7  C 3.111111111111086 6.144444444444446  2.411111111111097 5.444444444444443  1.555555555555543 5.444444444444443  C 0.6999999999999886 5.444444444444443  0 6.144444444444446  0 7  C 0 7.855555555555554  0.6999999999999886 8.555555555555557  1.555555555555543 8.555555555555557  C 2.411111111111097 8.555555555555557  3.111111111111086 7.855555555555554  3.111111111111086 7  Z " fill-rule="nonzero" fill="rgba(153, 153, 153, 1)" stroke="none" transform="matrix(1 0 0 1 312 16 )" class="fill" />
    <path d="M 3.111111111111086 1.5555555555555571  C 3.111111111111086 0.6999999999999993  2.411111111111097 0  1.555555555555543 0  C 0.6999999999999886 0  0 0.6999999999999993  0 1.5555555555555571  C 0 2.4111111111111114  0.6999999999999886 3.1111111111111143  1.555555555555543 3.1111111111111143  C 2.411111111111097 3.1111111111111143  3.111111111111086 2.4111111111111114  3.111111111111086 1.5555555555555571  Z " stroke-width="0" stroke-dasharray="0" stroke="rgba(255, 255, 255, 0)" fill="none" transform="matrix(1 0 0 1 312 16 )" class="stroke" mask="url(#Clip241)" />
    <path d="M 3.111111111111086 12.444444444444443  C 3.111111111111086 11.588888888888889  2.411111111111097 10.888888888888886  1.555555555555543 10.888888888888886  C 0.6999999999999886 10.888888888888886  0 11.588888888888889  0 12.444444444444443  C 0 13.300000000000004  0.6999999999999886 14  1.555555555555543 14  C 2.411111111111097 14  3.111111111111086 13.300000000000004  3.111111111111086 12.444444444444443  Z " stroke-width="0" stroke-dasharray="0" stroke="rgba(255, 255, 255, 0)" fill="none" transform="matrix(1 0 0 1 312 16 )" class="stroke" mask="url(#Clip241)" />
    <path d="M 3.111111111111086 7  C 3.111111111111086 6.144444444444446  2.411111111111097 5.444444444444443  1.555555555555543 5.444444444444443  C 0.6999999999999886 5.444444444444443  0 6.144444444444446  0 7  C 0 7.855555555555554  0.6999999999999886 8.555555555555557  1.555555555555543 8.555555555555557  C 2.411111111111097 8.555555555555557  3.111111111111086 7.855555555555554  3.111111111111086 7  Z " stroke-width="0" stroke-dasharray="0" stroke="rgba(255, 255, 255, 0)" fill="none" transform="matrix(1 0 0 1 312 16 )" class="stroke" mask="url(#Clip241)" />
  </g>
</svg>