<?xml version="1.0" encoding="utf-8"?>
<svg version="1.1" xmlns:xlink="http://www.w3.org/1999/xlink" width="20px" height="18px" xmlns="http://www.w3.org/2000/svg">
  <defs>
    <pattern id="BGPattern" patternUnits="userSpaceOnUse" alignment="0 0" imageRepeat="None" />
    <mask fill="white" id="Clip240">
      <path d="M 18.47222222222223 17.5  L 5.833333333333314 17.5  L 5.833333333333314 8  L 19.444444444444457 8  L 19.444444444444457 16.52777777777777  C 19.444444444444457 17.06472128455772  19.009165729002177 17.5  18.47222222222223 17.5  Z M 4 6.805555555555571  L 4 17.5  L 0.9722222222222285 17.5  C 0.4352787154422799 17.5  0 17.06472128455772  0 16.52777777777777  L 0 0.9722222222222285  C 0 0.4352787154422799  0.4352787154422799 0  0.9722222222222285 0  L 8.180277777777746 0  L 10.124722222222204 1.9444444444444287  L 18.47222222222223 1.9444444444444287  C 19.009165729002177 1.9444444444444287  19.444444444444457 2.379723159886737  19.444444444444457 2.9166666666666856  L 19.444444444444457 6  L 4.861111111111086 6  C 4.324167604331194 5.833333333333314  3.888888888888914 6.268612048775594  4 6.805555555555571  Z " fill-rule="evenodd" />
    </mask>
  </defs>
  <g transform="matrix(1 0 0 1 -269 -167 )">
    <path d="M 18.47222222222223 17.5  L 5.833333333333314 17.5  L 5.833333333333314 8  L 19.444444444444457 8  L 19.444444444444457 16.52777777777777  C 19.444444444444457 17.06472128455772  19.009165729002177 17.5  18.47222222222223 17.5  Z M 4 6.805555555555571  L 4 17.5  L 0.9722222222222285 17.5  C 0.4352787154422799 17.5  0 17.06472128455772  0 16.52777777777777  L 0 0.9722222222222285  C 0 0.4352787154422799  0.4352787154422799 0  0.9722222222222285 0  L 8.180277777777746 0  L 10.124722222222204 1.9444444444444287  L 18.47222222222223 1.9444444444444287  C 19.009165729002177 1.9444444444444287  19.444444444444457 2.379723159886737  19.444444444444457 2.9166666666666856  L 19.444444444444457 6  L 4.861111111111086 6  C 4.324167604331194 5.833333333333314  3.888888888888914 6.268612048775594  4 6.805555555555571  Z " fill-rule="nonzero" fill="rgba(61, 212, 167, 1)" stroke="none" transform="matrix(1 0 0 1 269 167 )" class="fill" />
    <path d="M 18.47222222222223 17.5  L 5.833333333333314 17.5  L 5.833333333333314 8  L 19.444444444444457 8  L 19.444444444444457 16.52777777777777  C 19.444444444444457 17.06472128455772  19.009165729002177 17.5  18.47222222222223 17.5  Z " stroke-width="0" stroke-dasharray="0" stroke="rgba(255, 255, 255, 0)" fill="none" transform="matrix(1 0 0 1 269 167 )" class="stroke" mask="url(#Clip240)" />
    <path d="M 4 6.805555555555571  L 4 17.5  L 0.9722222222222285 17.5  C 0.4352787154422799 17.5  0 17.06472128455772  0 16.52777777777777  L 0 0.9722222222222285  C 0 0.4352787154422799  0.4352787154422799 0  0.9722222222222285 0  L 8.180277777777746 0  L 10.124722222222204 1.9444444444444287  L 18.47222222222223 1.9444444444444287  C 19.009165729002177 1.9444444444444287  19.444444444444457 2.379723159886737  19.444444444444457 2.9166666666666856  L 19.444444444444457 6  L 4.861111111111086 6  C 4.324167604331194 5.833333333333314  3.888888888888914 6.268612048775594  4 6.805555555555571  Z " stroke-width="0" stroke-dasharray="0" stroke="rgba(255, 255, 255, 0)" fill="none" transform="matrix(1 0 0 1 269 167 )" class="stroke" mask="url(#Clip240)" />
  </g>
</svg>