<?xml version="1.0" encoding="utf-8"?>
<svg version="1.1" xmlns:xlink="http://www.w3.org/1999/xlink" width="20px" height="19px" xmlns="http://www.w3.org/2000/svg">
  <defs>
    <pattern id="BGPattern" patternUnits="userSpaceOnUse" alignment="0 0" imageRepeat="None" />
    <mask fill="white" id="Clip248">
      <path d="M 15.877499999999998 18.50666666666666  L 10 15.216666666666697  L 4.122500000000002 18.50666666666666  L 5.435000000000002 11.899999999999977  L 0.48916666666666586 7.326666666666654  L 7.1783333333333275 6.53333333333336  L 10 0.4166666666666287  L 12.821666666666673 6.53333333333336  L 19.51083333333333 7.326666666666654  L 14.564999999999998 11.899999999999977  L 15.877499999999998 18.50666666666666  Z " fill-rule="evenodd" />
    </mask>
  </defs>
  <g transform="matrix(1 0 0 1 -30 -332 )">
    <path d="M 15.877499999999998 18.50666666666666  L 10 15.216666666666697  L 4.122500000000002 18.50666666666666  L 5.435000000000002 11.899999999999977  L 0.48916666666666586 7.326666666666654  L 7.1783333333333275 6.53333333333336  L 10 0.4166666666666287  L 12.821666666666673 6.53333333333336  L 19.51083333333333 7.326666666666654  L 14.564999999999998 11.899999999999977  L 15.877499999999998 18.50666666666666  Z " fill-rule="nonzero" fill="rgba(253, 219, 120, 1)" stroke="none" transform="matrix(1 0 0 1 30 332 )" class="fill" />
    <path d="M 15.877499999999998 18.50666666666666  L 10 15.216666666666697  L 4.122500000000002 18.50666666666666  L 5.435000000000002 11.899999999999977  L 0.48916666666666586 7.326666666666654  L 7.1783333333333275 6.53333333333336  L 10 0.4166666666666287  L 12.821666666666673 6.53333333333336  L 19.51083333333333 7.326666666666654  L 14.564999999999998 11.899999999999977  L 15.877499999999998 18.50666666666666  Z " stroke-width="0" stroke-dasharray="0" stroke="rgba(255, 255, 255, 0)" fill="none" transform="matrix(1 0 0 1 30 332 )" class="stroke" mask="url(#Clip248)" />
  </g>
</svg>