<?xml version="1.0" encoding="utf-8"?>
<svg version="1.1" xmlns:xlink="http://www.w3.org/1999/xlink" width="18px" height="18px" xmlns="http://www.w3.org/2000/svg">
  <defs>
    <pattern id="BGPattern" patternUnits="userSpaceOnUse" alignment="0 0" imageRepeat="None" />
    <mask fill="white" id="Clip251">
      <path d="M 2.557190082644638 15.256859504132208  C 2.029677833510334 14.718595677365727  1.5723326665615787 14.115799752403802  1.1960330578511957 13.4628099173554  C 0.8187209339391188 12.810333271904241  0.5254198490158615 12.112768523916898  0.3231074380165069 11.386710743801657  C 1.2212310044300239 10.92991612519144  1.7868843372116316 10.007606535444367  1.7868843372116316 8.999991894751538  C 1.7868843372116316 7.993098110388772  1.2220318760233795 7.071320904447994  0.3248925619835177 6.614181818181777  C 0.7283626227266495 5.155277250353556  1.496585102067968 3.8230977649864784  2.557190082644638 2.7431404958677845  C 2.991584598139468 3.0255564396723926  3.4985852125076917 3.1758782934007286  4.016713922778706 3.1758782934007286  C 5.495559038028091 3.1758782934007286  6.694399873191912 1.9770374582368504  6.694399873191912 0.49819234298743  C 6.694399873191912 0.45091328011496756  6.693147685803979 0.4036425097512364  6.6906446280991645 0.35642975206612704  C 8.156329238012972 -0.022353803613967216  9.694320940285365 -0.021739467004294966  11.159702479338875 0.3582148760330881  C 11.157243301349695 0.4050129100839541  11.156013076713805 0.4518674376767464  11.156013076713805 0.4987300405430659  C 11.156013076713805 1.9775751557924863  12.354853911877626 3.176415990956272  13.833699027127011 3.176415990956272  C 14.352163397522872 3.176415990956272  14.859477767983037 3.0258994704029405  15.29404958677685 2.7431404958677845  C 15.810842975206583 3.269752066115707  16.26961983471074 3.868661157024775  16.655206611570236 4.537190082644592  C 17.04168595041324 5.205719008264417  17.330876033057848 5.902809917355398  17.528132231404925 6.6132892561983425  C 16.630008664991408 7.070083874808553  16.064355332209857 7.992393464555633  16.064355332209857 9.000008105248469  C 16.064355332209857 10.006901889611228  16.62920779339811 10.928679095552013  17.52634710743797 11.385818181818223  C 17.12287704669484 12.84472274964645  16.35465456735352 14.176902235013529  15.29404958677685 15.256859504132208  C 14.85965507128202 14.9744435603276  14.352654456913797 14.824121706599271  13.834525746642782 14.824121706599271  C 12.35568063139334 14.824121706599271  11.15683979622952 16.02296254176315  11.15683979622952 17.501807657012563  C 11.15683979622952 17.549086719885025  11.15809198361751 17.596357490248764  11.160595041322267 17.643570247933866  C 9.694910431408516 18.022353803613967  8.156918729136123 18.021739467004295  6.691537190082613 17.641785123966912  C 6.693996368071794 17.594987089916046  6.695226592707684 17.548132562323246  6.695226592707684 17.501269959456934  C 6.695226592707684 16.022424844207507  5.496385757543862 14.823584009043728  4.017540642294421 14.823584009043728  C 3.499076271898616 14.823584009043728  2.9917619014384513 14.974100529597067  2.557190082644638 15.256859504132208  Z M 3.103438016528912 13.13434710743799  C 4.177829966823651 12.909145798422813  5.297540634231154 13.088401210406289  6.247933884297538 13.637752066115723  C 7.199071980083033 14.186346042705495  7.91420885066816 15.066758990048001  8.256198347107443 16.11014876033059  C 8.701586776859472 16.152099173553708  9.148760330578511 16.152991735537228  9.594148760330597 16.111041322314023  C 9.936359341253308 15.067505419481307  10.65183135788186 14.187071174229786  11.60330578512395 13.638644628099158  C 12.554078244001346 13.088545850849854  13.674516246360383 12.908957915719952  14.749586776859474 13.13434710743799  C 15.008429752066093 12.770181818181769  15.231570247933917 12.381917355371925  15.417223140495878 11.975801652892585  C 14.684813195873687 11.15771600125305  14.280203156867799 10.098038177179532  14.280991735537157 9  C 14.280991735537157 7.875371900826444  14.700495867768552 6.824826446281001  15.417223140495878 6.024198347107408  C 15.230257217373833 5.618214814341371  15.006163376500922 5.230383073737357  14.747801652892576 4.865652892562004  C 13.673409702597837 5.090854201577187  12.553699035190277 4.911598789593718  11.60330578512395 4.362247933884277  C 10.652167689338455 3.8136539572944983  9.937030818753328 2.933241009951992  9.595041322314046 1.8898512396694116  C 9.149652892562017 1.847900826446292  8.702479338842977 1.8470082644627652  8.257090909090891 1.8889586776859844  C 7.914880328168181 2.932494580518693  7.199408311539628 3.8129288257702214  6.247933884297538 4.361355371900842  C 5.297161425420143 4.911454149150153  4.176723423061105 5.091042084280048  3.101652892562015 4.865652892562004  C 2.8433146993128275 5.23007309208986  2.6197869712809165 5.617959443674685  2.4340165289256106 6.024198347107408  C 3.1664264735478014 6.842283998746957  3.5710365125536896 7.901961822820475  3.570247933884332 9  C 3.570247933884332 10.124628099173549  3.1507438016529363 11.175173553719006  2.4340165289256106 11.975801652892585  C 2.620982452047599 12.381785185658629  2.8450762929205666 12.769616926262643  3.103438016528912 13.13434710743799  Z M 8.925619834710744 11.677685950413206  C 7.446774719461359 11.677685950413206  6.247933884297538 10.478845115249428  6.247933884297538 9  C 6.247933884297538 7.52115488475058  7.446774719461359 6.322314049586794  8.925619834710744 6.322314049586794  C 10.40446494996013 6.322314049586794  11.60330578512395 7.52115488475058  11.60330578512395 9  C 11.60330578512395 10.478845115249428  10.40446494996013 11.677685950413206  8.925619834710744 11.677685950413206  Z M 8.925619834710744 9.892561983471097  C 9.418568206460577 9.892561983471097  9.818181818181813 9.492948371749833  9.818181818181813 9  C 9.818181818181813 8.50705162825016  9.418568206460577 8.107438016528903  8.925619834710744 8.107438016528903  C 8.432671462960911 8.107438016528903  8.033057851239676 8.50705162825016  8.033057851239676 9  C 8.033057851239676 9.492948371749833  8.432671462960911 9.892561983471097  8.925619834710744 9.892561983471097  Z " fill-rule="evenodd" />
    </mask>
  </defs>
  <g transform="matrix(1 0 0 1 -347 -67 )">
    <path d="M 2.557190082644638 15.256859504132208  C 2.029677833510334 14.718595677365727  1.5723326665615787 14.115799752403802  1.1960330578511957 13.4628099173554  C 0.8187209339391188 12.810333271904241  0.5254198490158615 12.112768523916898  0.3231074380165069 11.386710743801657  C 1.2212310044300239 10.92991612519144  1.7868843372116316 10.007606535444367  1.7868843372116316 8.999991894751538  C 1.7868843372116316 7.993098110388772  1.2220318760233795 7.071320904447994  0.3248925619835177 6.614181818181777  C 0.7283626227266495 5.155277250353556  1.496585102067968 3.8230977649864784  2.557190082644638 2.7431404958677845  C 2.991584598139468 3.0255564396723926  3.4985852125076917 3.1758782934007286  4.016713922778706 3.1758782934007286  C 5.495559038028091 3.1758782934007286  6.694399873191912 1.9770374582368504  6.694399873191912 0.49819234298743  C 6.694399873191912 0.45091328011496756  6.693147685803979 0.4036425097512364  6.6906446280991645 0.35642975206612704  C 8.156329238012972 -0.022353803613967216  9.694320940285365 -0.021739467004294966  11.159702479338875 0.3582148760330881  C 11.157243301349695 0.4050129100839541  11.156013076713805 0.4518674376767464  11.156013076713805 0.4987300405430659  C 11.156013076713805 1.9775751557924863  12.354853911877626 3.176415990956272  13.833699027127011 3.176415990956272  C 14.352163397522872 3.176415990956272  14.859477767983037 3.0258994704029405  15.29404958677685 2.7431404958677845  C 15.810842975206583 3.269752066115707  16.26961983471074 3.868661157024775  16.655206611570236 4.537190082644592  C 17.04168595041324 5.205719008264417  17.330876033057848 5.902809917355398  17.528132231404925 6.6132892561983425  C 16.630008664991408 7.070083874808553  16.064355332209857 7.992393464555633  16.064355332209857 9.000008105248469  C 16.064355332209857 10.006901889611228  16.62920779339811 10.928679095552013  17.52634710743797 11.385818181818223  C 17.12287704669484 12.84472274964645  16.35465456735352 14.176902235013529  15.29404958677685 15.256859504132208  C 14.85965507128202 14.9744435603276  14.352654456913797 14.824121706599271  13.834525746642782 14.824121706599271  C 12.35568063139334 14.824121706599271  11.15683979622952 16.02296254176315  11.15683979622952 17.501807657012563  C 11.15683979622952 17.549086719885025  11.15809198361751 17.596357490248764  11.160595041322267 17.643570247933866  C 9.694910431408516 18.022353803613967  8.156918729136123 18.021739467004295  6.691537190082613 17.641785123966912  C 6.693996368071794 17.594987089916046  6.695226592707684 17.548132562323246  6.695226592707684 17.501269959456934  C 6.695226592707684 16.022424844207507  5.496385757543862 14.823584009043728  4.017540642294421 14.823584009043728  C 3.499076271898616 14.823584009043728  2.9917619014384513 14.974100529597067  2.557190082644638 15.256859504132208  Z M 3.103438016528912 13.13434710743799  C 4.177829966823651 12.909145798422813  5.297540634231154 13.088401210406289  6.247933884297538 13.637752066115723  C 7.199071980083033 14.186346042705495  7.91420885066816 15.066758990048001  8.256198347107443 16.11014876033059  C 8.701586776859472 16.152099173553708  9.148760330578511 16.152991735537228  9.594148760330597 16.111041322314023  C 9.936359341253308 15.067505419481307  10.65183135788186 14.187071174229786  11.60330578512395 13.638644628099158  C 12.554078244001346 13.088545850849854  13.674516246360383 12.908957915719952  14.749586776859474 13.13434710743799  C 15.008429752066093 12.770181818181769  15.231570247933917 12.381917355371925  15.417223140495878 11.975801652892585  C 14.684813195873687 11.15771600125305  14.280203156867799 10.098038177179532  14.280991735537157 9  C 14.280991735537157 7.875371900826444  14.700495867768552 6.824826446281001  15.417223140495878 6.024198347107408  C 15.230257217373833 5.618214814341371  15.006163376500922 5.230383073737357  14.747801652892576 4.865652892562004  C 13.673409702597837 5.090854201577187  12.553699035190277 4.911598789593718  11.60330578512395 4.362247933884277  C 10.652167689338455 3.8136539572944983  9.937030818753328 2.933241009951992  9.595041322314046 1.8898512396694116  C 9.149652892562017 1.847900826446292  8.702479338842977 1.8470082644627652  8.257090909090891 1.8889586776859844  C 7.914880328168181 2.932494580518693  7.199408311539628 3.8129288257702214  6.247933884297538 4.361355371900842  C 5.297161425420143 4.911454149150153  4.176723423061105 5.091042084280048  3.101652892562015 4.865652892562004  C 2.8433146993128275 5.23007309208986  2.6197869712809165 5.617959443674685  2.4340165289256106 6.024198347107408  C 3.1664264735478014 6.842283998746957  3.5710365125536896 7.901961822820475  3.570247933884332 9  C 3.570247933884332 10.124628099173549  3.1507438016529363 11.175173553719006  2.4340165289256106 11.975801652892585  C 2.620982452047599 12.381785185658629  2.8450762929205666 12.769616926262643  3.103438016528912 13.13434710743799  Z M 8.925619834710744 11.677685950413206  C 7.446774719461359 11.677685950413206  6.247933884297538 10.478845115249428  6.247933884297538 9  C 6.247933884297538 7.52115488475058  7.446774719461359 6.322314049586794  8.925619834710744 6.322314049586794  C 10.40446494996013 6.322314049586794  11.60330578512395 7.52115488475058  11.60330578512395 9  C 11.60330578512395 10.478845115249428  10.40446494996013 11.677685950413206  8.925619834710744 11.677685950413206  Z M 8.925619834710744 9.892561983471097  C 9.418568206460577 9.892561983471097  9.818181818181813 9.492948371749833  9.818181818181813 9  C 9.818181818181813 8.50705162825016  9.418568206460577 8.107438016528903  8.925619834710744 8.107438016528903  C 8.432671462960911 8.107438016528903  8.033057851239676 8.50705162825016  8.033057851239676 9  C 8.033057851239676 9.492948371749833  8.432671462960911 9.892561983471097  8.925619834710744 9.892561983471097  Z " fill-rule="nonzero" fill="rgba(51, 51, 51, 1)" stroke="none" transform="matrix(1 0 0 1 347 67 )" class="fill" />
    <path d="M 2.557190082644638 15.256859504132208  C 2.029677833510334 14.718595677365727  1.5723326665615787 14.115799752403802  1.1960330578511957 13.4628099173554  C 0.8187209339391188 12.810333271904241  0.5254198490158615 12.112768523916898  0.3231074380165069 11.386710743801657  C 1.2212310044300239 10.92991612519144  1.7868843372116316 10.007606535444367  1.7868843372116316 8.999991894751538  C 1.7868843372116316 7.993098110388772  1.2220318760233795 7.071320904447994  0.3248925619835177 6.614181818181777  C 0.7283626227266495 5.155277250353556  1.496585102067968 3.8230977649864784  2.557190082644638 2.7431404958677845  C 2.991584598139468 3.0255564396723926  3.4985852125076917 3.1758782934007286  4.016713922778706 3.1758782934007286  C 5.495559038028091 3.1758782934007286  6.694399873191912 1.9770374582368504  6.694399873191912 0.49819234298743  C 6.694399873191912 0.45091328011496756  6.693147685803979 0.4036425097512364  6.6906446280991645 0.35642975206612704  C 8.156329238012972 -0.022353803613967216  9.694320940285365 -0.021739467004294966  11.159702479338875 0.3582148760330881  C 11.157243301349695 0.4050129100839541  11.156013076713805 0.4518674376767464  11.156013076713805 0.4987300405430659  C 11.156013076713805 1.9775751557924863  12.354853911877626 3.176415990956272  13.833699027127011 3.176415990956272  C 14.352163397522872 3.176415990956272  14.859477767983037 3.0258994704029405  15.29404958677685 2.7431404958677845  C 15.810842975206583 3.269752066115707  16.26961983471074 3.868661157024775  16.655206611570236 4.537190082644592  C 17.04168595041324 5.205719008264417  17.330876033057848 5.902809917355398  17.528132231404925 6.6132892561983425  C 16.630008664991408 7.070083874808553  16.064355332209857 7.992393464555633  16.064355332209857 9.000008105248469  C 16.064355332209857 10.006901889611228  16.62920779339811 10.928679095552013  17.52634710743797 11.385818181818223  C 17.12287704669484 12.84472274964645  16.35465456735352 14.176902235013529  15.29404958677685 15.256859504132208  C 14.85965507128202 14.9744435603276  14.352654456913797 14.824121706599271  13.834525746642782 14.824121706599271  C 12.35568063139334 14.824121706599271  11.15683979622952 16.02296254176315  11.15683979622952 17.501807657012563  C 11.15683979622952 17.549086719885025  11.15809198361751 17.596357490248764  11.160595041322267 17.643570247933866  C 9.694910431408516 18.022353803613967  8.156918729136123 18.021739467004295  6.691537190082613 17.641785123966912  C 6.693996368071794 17.594987089916046  6.695226592707684 17.548132562323246  6.695226592707684 17.501269959456934  C 6.695226592707684 16.022424844207507  5.496385757543862 14.823584009043728  4.017540642294421 14.823584009043728  C 3.499076271898616 14.823584009043728  2.9917619014384513 14.974100529597067  2.557190082644638 15.256859504132208  Z " stroke-width="0" stroke-dasharray="0" stroke="rgba(255, 255, 255, 0)" fill="none" transform="matrix(1 0 0 1 347 67 )" class="stroke" mask="url(#Clip251)" />
    <path d="M 3.103438016528912 13.13434710743799  C 4.177829966823651 12.909145798422813  5.297540634231154 13.088401210406289  6.247933884297538 13.637752066115723  C 7.199071980083033 14.186346042705495  7.91420885066816 15.066758990048001  8.256198347107443 16.11014876033059  C 8.701586776859472 16.152099173553708  9.148760330578511 16.152991735537228  9.594148760330597 16.111041322314023  C 9.936359341253308 15.067505419481307  10.65183135788186 14.187071174229786  11.60330578512395 13.638644628099158  C 12.554078244001346 13.088545850849854  13.674516246360383 12.908957915719952  14.749586776859474 13.13434710743799  C 15.008429752066093 12.770181818181769  15.231570247933917 12.381917355371925  15.417223140495878 11.975801652892585  C 14.684813195873687 11.15771600125305  14.280203156867799 10.098038177179532  14.280991735537157 9  C 14.280991735537157 7.875371900826444  14.700495867768552 6.824826446281001  15.417223140495878 6.024198347107408  C 15.230257217373833 5.618214814341371  15.006163376500922 5.230383073737357  14.747801652892576 4.865652892562004  C 13.673409702597837 5.090854201577187  12.553699035190277 4.911598789593718  11.60330578512395 4.362247933884277  C 10.652167689338455 3.8136539572944983  9.937030818753328 2.933241009951992  9.595041322314046 1.8898512396694116  C 9.149652892562017 1.847900826446292  8.702479338842977 1.8470082644627652  8.257090909090891 1.8889586776859844  C 7.914880328168181 2.932494580518693  7.199408311539628 3.8129288257702214  6.247933884297538 4.361355371900842  C 5.297161425420143 4.911454149150153  4.176723423061105 5.091042084280048  3.101652892562015 4.865652892562004  C 2.8433146993128275 5.23007309208986  2.6197869712809165 5.617959443674685  2.4340165289256106 6.024198347107408  C 3.1664264735478014 6.842283998746957  3.5710365125536896 7.901961822820475  3.570247933884332 9  C 3.570247933884332 10.124628099173549  3.1507438016529363 11.175173553719006  2.4340165289256106 11.975801652892585  C 2.620982452047599 12.381785185658629  2.8450762929205666 12.769616926262643  3.103438016528912 13.13434710743799  Z " stroke-width="0" stroke-dasharray="0" stroke="rgba(255, 255, 255, 0)" fill="none" transform="matrix(1 0 0 1 347 67 )" class="stroke" mask="url(#Clip251)" />
    <path d="M 8.925619834710744 11.677685950413206  C 7.446774719461359 11.677685950413206  6.247933884297538 10.478845115249428  6.247933884297538 9  C 6.247933884297538 7.52115488475058  7.446774719461359 6.322314049586794  8.925619834710744 6.322314049586794  C 10.40446494996013 6.322314049586794  11.60330578512395 7.52115488475058  11.60330578512395 9  C 11.60330578512395 10.478845115249428  10.40446494996013 11.677685950413206  8.925619834710744 11.677685950413206  Z " stroke-width="0" stroke-dasharray="0" stroke="rgba(255, 255, 255, 0)" fill="none" transform="matrix(1 0 0 1 347 67 )" class="stroke" mask="url(#Clip251)" />
    <path d="M 8.925619834710744 9.892561983471097  C 9.418568206460577 9.892561983471097  9.818181818181813 9.492948371749833  9.818181818181813 9  C 9.818181818181813 8.50705162825016  9.418568206460577 8.107438016528903  8.925619834710744 8.107438016528903  C 8.432671462960911 8.107438016528903  8.033057851239676 8.50705162825016  8.033057851239676 9  C 8.033057851239676 9.492948371749833  8.432671462960911 9.892561983471097  8.925619834710744 9.892561983471097  Z " stroke-width="0" stroke-dasharray="0" stroke="rgba(255, 255, 255, 0)" fill="none" transform="matrix(1 0 0 1 347 67 )" class="stroke" mask="url(#Clip251)" />
  </g>
</svg>