<?xml version="1.0" encoding="utf-8"?>
<svg version="1.1" xmlns:xlink="http://www.w3.org/1999/xlink" width="16px" height="16px" xmlns="http://www.w3.org/2000/svg">
  <defs>
    <pattern id="BGPattern" patternUnits="userSpaceOnUse" alignment="0 0" imageRepeat="None" />
    <mask fill="white" id="Clip254">
      <path d="M 1.7777777777777715 12.965333333333334  L 1.7777777777777715 14.222222222222229  L 3.0346666666666806 14.222222222222229  L 11.313777777777773 5.943111111111108  L 10.056888888888864 4.686222222222227  L 1.7777777777777715 12.965333333333334  Z M 16 14  L 16 16  L 0 16  L 0 12.228444444444449  L 11.942222222222199 0.2862222222222215  C 12.289333201320744 -0.06078394518476671  12.85200013201262 -0.06078394518476671  13.199111111111108 0.2862222222222215  L 15.71377777777775 2.800888888888892  C 16.060783945184767 3.1479998679873944  16.060783945184767 3.71066679867927  15.71377777777775 4.057777777777773  L 5.549333333333323 14  L 16 14  Z M 12.570666666666682 2.1724444444444515  L 11.313777777777773 3.4293333333333322  L 12.570666666666682 4.686222222222227  L 13.827555555555534 3.4293333333333322  L 12.570666666666682 2.1724444444444515  Z " fill-rule="evenodd" />
    </mask>
  </defs>
  <g transform="matrix(1 0 0 1 -348 -68 )">
    <path d="M 1.7777777777777715 12.965333333333334  L 1.7777777777777715 14.222222222222229  L 3.0346666666666806 14.222222222222229  L 11.313777777777773 5.943111111111108  L 10.056888888888864 4.686222222222227  L 1.7777777777777715 12.965333333333334  Z M 16 14  L 16 16  L 0 16  L 0 12.228444444444449  L 11.942222222222199 0.2862222222222215  C 12.289333201320744 -0.06078394518476671  12.85200013201262 -0.06078394518476671  13.199111111111108 0.2862222222222215  L 15.71377777777775 2.800888888888892  C 16.060783945184767 3.1479998679873944  16.060783945184767 3.71066679867927  15.71377777777775 4.057777777777773  L 5.549333333333323 14  L 16 14  Z M 12.570666666666682 2.1724444444444515  L 11.313777777777773 3.4293333333333322  L 12.570666666666682 4.686222222222227  L 13.827555555555534 3.4293333333333322  L 12.570666666666682 2.1724444444444515  Z " fill-rule="nonzero" fill="rgba(51, 51, 51, 1)" stroke="none" transform="matrix(1 0 0 1 348 68 )" class="fill" />
    <path d="M 1.7777777777777715 12.965333333333334  L 1.7777777777777715 14.222222222222229  L 3.0346666666666806 14.222222222222229  L 11.313777777777773 5.943111111111108  L 10.056888888888864 4.686222222222227  L 1.7777777777777715 12.965333333333334  Z " stroke-width="0" stroke-dasharray="0" stroke="rgba(255, 255, 255, 0)" fill="none" transform="matrix(1 0 0 1 348 68 )" class="stroke" mask="url(#Clip254)" />
    <path d="M 16 14  L 16 16  L 0 16  L 0 12.228444444444449  L 11.942222222222199 0.2862222222222215  C 12.289333201320744 -0.06078394518476671  12.85200013201262 -0.06078394518476671  13.199111111111108 0.2862222222222215  L 15.71377777777775 2.800888888888892  C 16.060783945184767 3.1479998679873944  16.060783945184767 3.71066679867927  15.71377777777775 4.057777777777773  L 5.549333333333323 14  L 16 14  Z " stroke-width="0" stroke-dasharray="0" stroke="rgba(255, 255, 255, 0)" fill="none" transform="matrix(1 0 0 1 348 68 )" class="stroke" mask="url(#Clip254)" />
    <path d="M 12.570666666666682 2.1724444444444515  L 11.313777777777773 3.4293333333333322  L 12.570666666666682 4.686222222222227  L 13.827555555555534 3.4293333333333322  L 12.570666666666682 2.1724444444444515  Z " stroke-width="0" stroke-dasharray="0" stroke="rgba(255, 255, 255, 0)" fill="none" transform="matrix(1 0 0 1 348 68 )" class="stroke" mask="url(#Clip254)" />
  </g>
</svg>