<?xml version="1.0" encoding="utf-8"?>
<svg version="1.1" xmlns:xlink="http://www.w3.org/1999/xlink" width="15px" height="17px" xmlns="http://www.w3.org/2000/svg">
  <defs>
    <pattern id="BGPattern" patternUnits="userSpaceOnUse" alignment="0 0" imageRepeat="None" />
    <mask fill="white" id="Clip246">
      <path d="M 15 11.999999999999943  L 15 13.5  L 0 13.5  L 0 11.999999999999943  L 0.75 11.999999999999943  L 0.75 6.77324999999999  C 0.75 3.0322500000000048  3.772500000000001 0  7.5 0  C 11.2275 0  14.25 3.0322500000000048  14.25 6.77324999999999  L 14.25 11.999999999999943  L 15 11.999999999999943  Z M 7.5 16.124999999999943  C 6.464466094067262 16.124999999999943  5.625 15.285533905932652  5.625 14.249999999999943  L 9.375 14.249999999999943  C 9.375 15.285533905932652  8.535533905932738 16.124999999999943  7.5 16.124999999999943  Z " fill-rule="evenodd" />
    </mask>
  </defs>
  <g transform="matrix(1 0 0 1 -30 -286 )">
    <path d="M 15 11.999999999999943  L 15 13.5  L 0 13.5  L 0 11.999999999999943  L 0.75 11.999999999999943  L 0.75 6.77324999999999  C 0.75 3.0322500000000048  3.772500000000001 0  7.5 0  C 11.2275 0  14.25 3.0322500000000048  14.25 6.77324999999999  L 14.25 11.999999999999943  L 15 11.999999999999943  Z M 7.5 16.124999999999943  C 6.464466094067262 16.124999999999943  5.625 15.285533905932652  5.625 14.249999999999943  L 9.375 14.249999999999943  C 9.375 15.285533905932652  8.535533905932738 16.124999999999943  7.5 16.124999999999943  Z " fill-rule="nonzero" fill="rgba(61, 212, 167, 1)" stroke="none" transform="matrix(1 0 0 1 30 286 )" class="fill" />
    <path d="M 15 11.999999999999943  L 15 13.5  L 0 13.5  L 0 11.999999999999943  L 0.75 11.999999999999943  L 0.75 6.77324999999999  C 0.75 3.0322500000000048  3.772500000000001 0  7.5 0  C 11.2275 0  14.25 3.0322500000000048  14.25 6.77324999999999  L 14.25 11.999999999999943  L 15 11.999999999999943  Z " stroke-width="0" stroke-dasharray="0" stroke="rgba(255, 255, 255, 0)" fill="none" transform="matrix(1 0 0 1 30 286 )" class="stroke" mask="url(#Clip246)" />
    <path d="M 7.5 16.124999999999943  C 6.464466094067262 16.124999999999943  5.625 15.285533905932652  5.625 14.249999999999943  L 9.375 14.249999999999943  C 9.375 15.285533905932652  8.535533905932738 16.124999999999943  7.5 16.124999999999943  Z " stroke-width="0" stroke-dasharray="0" stroke="rgba(255, 255, 255, 0)" fill="none" transform="matrix(1 0 0 1 30 286 )" class="stroke" mask="url(#Clip246)" />
  </g>
</svg>