<?xml version="1.0" encoding="utf-8"?>
<svg version="1.1" xmlns:xlink="http://www.w3.org/1999/xlink" width="14px" height="18px" viewBox="326 15 14 18" xmlns="http://www.w3.org/2000/svg">
  <defs>
    <pattern id="BGPattern" patternUnits="userSpaceOnUse" alignment="0 0" imageRepeat="None" />
    <mask fill="white" id="Clip201">
      <path d="M 5.727272727272748 15.54545479293165  L 5.727272727272748 13.040182318250572  C 2.457699400197157 12.624156344899347  0.007296566841546337 9.842203499369248  0.007296566841546337 6.546268852567607  C 0.007296566841546337 2.9340312219117664  2.9332193258891266 0.004479538522105031  6.545454545454561 0  C 6.547079277682258 0  6.548704010301037 0  6.550328742979218 0  C 10.165283469144413 0  13.095783288433779 2.930499523824608  13.095783288433779 6.545453885515599  C 13.095783288433779 9.845924150301641  10.638529229166522 12.630081293262606  7.363636363636375 13.040182318250572  L 7.363636363636375 15.54545479293165  L 5.727272727272748 15.54545479293165  Z M 6.545454545454561 11.454546114484401  C 9.256670590078443 11.454546114484401  11.454545454545496 9.25667147161596  11.454545454545496 6.545455700347702  C 11.454545454545496 3.8342399290795015  9.256670590078443 1.636365286211003  6.545454545454561 1.636365286211003  C 3.834238500830679 1.636365286211003  1.636363636363626 3.8342399290795015  1.636363636363626 6.545455700347702  C 1.636363636363626 9.25667147161596  3.834238500830679 11.454546114484401  6.545454545454561 11.454546114484401  Z M 0.818181818181813 18  L 0.818181818181813 16.3636365286211  L 12.272727272727309 16.3636365286211  L 12.272727272727309 18  L 0.818181818181813 18  Z " fill-rule="evenodd" />
    </mask>
  </defs>
  <g transform="matrix(1 0 0 1 -326 -15 )">
    <path d="M 5.727272727272748 15.54545479293165  L 5.727272727272748 13.040182318250572  C 2.457699400197157 12.624156344899347  0.007296566841546337 9.842203499369248  0.007296566841546337 6.546268852567607  C 0.007296566841546337 2.9340312219117664  2.9332193258891266 0.004479538522105031  6.545454545454561 0  C 6.547079277682258 0  6.548704010301037 0  6.550328742979218 0  C 10.165283469144413 0  13.095783288433779 2.930499523824608  13.095783288433779 6.545453885515599  C 13.095783288433779 9.845924150301641  10.638529229166522 12.630081293262606  7.363636363636375 13.040182318250572  L 7.363636363636375 15.54545479293165  L 5.727272727272748 15.54545479293165  Z M 6.545454545454561 11.454546114484401  C 9.256670590078443 11.454546114484401  11.454545454545496 9.25667147161596  11.454545454545496 6.545455700347702  C 11.454545454545496 3.8342399290795015  9.256670590078443 1.636365286211003  6.545454545454561 1.636365286211003  C 3.834238500830679 1.636365286211003  1.636363636363626 3.8342399290795015  1.636363636363626 6.545455700347702  C 1.636363636363626 9.25667147161596  3.834238500830679 11.454546114484401  6.545454545454561 11.454546114484401  Z M 0.818181818181813 18  L 0.818181818181813 16.3636365286211  L 12.272727272727309 16.3636365286211  L 12.272727272727309 18  L 0.818181818181813 18  Z " fill-rule="nonzero" fill="rgba(51, 51, 51, 1)" stroke="none" transform="matrix(1 0 0 1 326 15 )" class="fill" />
    <path d="M 5.727272727272748 15.54545479293165  L 5.727272727272748 13.040182318250572  C 2.457699400197157 12.624156344899347  0.007296566841546337 9.842203499369248  0.007296566841546337 6.546268852567607  C 0.007296566841546337 2.9340312219117664  2.9332193258891266 0.004479538522105031  6.545454545454561 0  C 6.547079277682258 0  6.548704010301037 0  6.550328742979218 0  C 10.165283469144413 0  13.095783288433779 2.930499523824608  13.095783288433779 6.545453885515599  C 13.095783288433779 9.845924150301641  10.638529229166522 12.630081293262606  7.363636363636375 13.040182318250572  L 7.363636363636375 15.54545479293165  L 5.727272727272748 15.54545479293165  Z " stroke-width="0" stroke-dasharray="0" stroke="rgba(255, 255, 255, 0)" fill="none" transform="matrix(1 0 0 1 326 15 )" class="stroke" mask="url(#Clip201)" />
    <path d="M 6.545454545454561 11.454546114484401  C 9.256670590078443 11.454546114484401  11.454545454545496 9.25667147161596  11.454545454545496 6.545455700347702  C 11.454545454545496 3.8342399290795015  9.256670590078443 1.636365286211003  6.545454545454561 1.636365286211003  C 3.834238500830679 1.636365286211003  1.636363636363626 3.8342399290795015  1.636363636363626 6.545455700347702  C 1.636363636363626 9.25667147161596  3.834238500830679 11.454546114484401  6.545454545454561 11.454546114484401  Z " stroke-width="0" stroke-dasharray="0" stroke="rgba(255, 255, 255, 0)" fill="none" transform="matrix(1 0 0 1 326 15 )" class="stroke" mask="url(#Clip201)" />
    <path d="M 0.818181818181813 18  L 0.818181818181813 16.3636365286211  L 12.272727272727309 16.3636365286211  L 12.272727272727309 18  L 0.818181818181813 18  Z " stroke-width="0" stroke-dasharray="0" stroke="rgba(255, 255, 255, 0)" fill="none" transform="matrix(1 0 0 1 326 15 )" class="stroke" mask="url(#Clip201)" />
  </g>
</svg>
