<?xml version="1.0" encoding="utf-8"?>
<svg version="1.1" xmlns:xlink="http://www.w3.org/1999/xlink" width="16px" height="16px" xmlns="http://www.w3.org/2000/svg">
  <defs>
    <pattern id="BGPattern" patternUnits="userSpaceOnUse" alignment="0 0" imageRepeat="None" />
    <mask fill="white" id="Clip249">
      <path d="M 0.8080003779106164 3.999999900497471  L 4.000000298507587 3.999999900497471  L 4.000000298507587 0.7999999800994715  C 4.000000298507587 0.35817219122560573  4.358172489733192 0  4.800000278607115 0  L 15.200000019900529 0  C 15.641827808774394 0  16 0.35817219122560573  16 0.7999999800994715  L 16 11.199999721392885  C 16 11.641827510266808  15.641827808774394 11.999999701492413  15.200000019900529 11.999999701492413  L 12.000000099502529 11.999999701492413  L 12.000000099502529 15.194399622029664  C 12.000000099502529 15.639199610964965  11.640800108437872 15.999999601989884  11.194400119542365 16  L 0.805600377970336 16  C 0.3603212243729672 16  0 15.639678775627033  0 15.19520002001991  L 0 4.805599880457635  C 0.0024003979504527706 4.360799891522333  0.36160038901510916 3.999999900497471  0.8080003779106164 3.999999900497471  Z M 5.6000002587065865 1.5999999601989998  L 5.6000002587065865 3.999999900497471  L 11.194400119542365 3.999999900497471  C 11.639200108477667 3.999999900497471  12.000000099502529 4.3591998915621275  12.000000099502529 4.805599880457635  L 12.000000099502529 10.399999741293414  L 14.400000039801 10.399999741293414  L 14.400000039801 1.5999999601989998  L 5.6000002587065865 1.5999999601989998  Z " fill-rule="evenodd" />
    </mask>
  </defs>
  <g transform="matrix(1 0 0 1 -30 -382 )">
    <path d="M 0.8080003779106164 3.999999900497471  L 4.000000298507587 3.999999900497471  L 4.000000298507587 0.7999999800994715  C 4.000000298507587 0.35817219122560573  4.358172489733192 0  4.800000278607115 0  L 15.200000019900529 0  C 15.641827808774394 0  16 0.35817219122560573  16 0.7999999800994715  L 16 11.199999721392885  C 16 11.641827510266808  15.641827808774394 11.999999701492413  15.200000019900529 11.999999701492413  L 12.000000099502529 11.999999701492413  L 12.000000099502529 15.194399622029664  C 12.000000099502529 15.639199610964965  11.640800108437872 15.999999601989884  11.194400119542365 16  L 0.805600377970336 16  C 0.3603212243729672 16  0 15.639678775627033  0 15.19520002001991  L 0 4.805599880457635  C 0.0024003979504527706 4.360799891522333  0.36160038901510916 3.999999900497471  0.8080003779106164 3.999999900497471  Z M 5.6000002587065865 1.5999999601989998  L 5.6000002587065865 3.999999900497471  L 11.194400119542365 3.999999900497471  C 11.639200108477667 3.999999900497471  12.000000099502529 4.3591998915621275  12.000000099502529 4.805599880457635  L 12.000000099502529 10.399999741293414  L 14.400000039801 10.399999741293414  L 14.400000039801 1.5999999601989998  L 5.6000002587065865 1.5999999601989998  Z " fill-rule="nonzero" fill="rgba(37, 97, 239, 1)" stroke="none" transform="matrix(1 0 0 1 30 382 )" class="fill" />
    <path d="M 0.8080003779106164 3.999999900497471  L 4.000000298507587 3.999999900497471  L 4.000000298507587 0.7999999800994715  C 4.000000298507587 0.35817219122560573  4.358172489733192 0  4.800000278607115 0  L 15.200000019900529 0  C 15.641827808774394 0  16 0.35817219122560573  16 0.7999999800994715  L 16 11.199999721392885  C 16 11.641827510266808  15.641827808774394 11.999999701492413  15.200000019900529 11.999999701492413  L 12.000000099502529 11.999999701492413  L 12.000000099502529 15.194399622029664  C 12.000000099502529 15.639199610964965  11.640800108437872 15.999999601989884  11.194400119542365 16  L 0.805600377970336 16  C 0.3603212243729672 16  0 15.639678775627033  0 15.19520002001991  L 0 4.805599880457635  C 0.0024003979504527706 4.360799891522333  0.36160038901510916 3.999999900497471  0.8080003779106164 3.999999900497471  Z " stroke-width="0" stroke-dasharray="0" stroke="rgba(255, 255, 255, 0)" fill="none" transform="matrix(1 0 0 1 30 382 )" class="stroke" mask="url(#Clip249)" />
    <path d="M 5.6000002587065865 1.5999999601989998  L 5.6000002587065865 3.999999900497471  L 11.194400119542365 3.999999900497471  C 11.639200108477667 3.999999900497471  12.000000099502529 4.3591998915621275  12.000000099502529 4.805599880457635  L 12.000000099502529 10.399999741293414  L 14.400000039801 10.399999741293414  L 14.400000039801 1.5999999601989998  L 5.6000002587065865 1.5999999601989998  Z " stroke-width="0" stroke-dasharray="0" stroke="rgba(255, 255, 255, 0)" fill="none" transform="matrix(1 0 0 1 30 382 )" class="stroke" mask="url(#Clip249)" />
  </g>
</svg>