<?xml version="1.0" encoding="utf-8"?>
<svg version="1.1" xmlns:xlink="http://www.w3.org/1999/xlink" width="18px" height="17px" viewBox="33 15 18 17" xmlns="http://www.w3.org/2000/svg">
  <defs>
    <pattern id="BGPattern" patternUnits="userSpaceOnUse" alignment="0 0" imageRepeat="None" />
    <mask fill="white" id="Clip203">
      <path d="M 0 10.80567  L 0 5.3943660000000015  C 0 2.4151409999999984  2.4088860000000025 0  5.400593999999998 0  L 12.59937 0  C 15.582059999999998 0  18 2.4253019999999985  18 5.3943660000000015  L 18 16  L 5.400593999999998 16  C 2.417931000000003 16.2  0 13.774679999999996  0 10.80567  Z M 5.400593999999998 14.399999999999999  L 16.200000000000003 14.399999999999999  L 16.200000000000003 5.3943660000000015  C 16.200000000000003 3.415851  14.584409999999998 1.8000000000000007  12.59937 1.8000000000000007  L 5.400593999999998 1.8000000000000007  C 3.4061220000000034 1.8000000000000007  1.8000000000000007 3.406122  1.8000000000000007 5.3943660000000015  L 1.8000000000000007 10.80567  C 1.8000000000000007 12.78414  3.415607999999999 14.399999999999999  5.400593999999998 14.399999999999999  Z M 10.799999999999997 9  L 10.799999999999997 7.199999999999999  L 12.600000000000001 7.199999999999999  L 12.600000000000001 9  L 10.799999999999997 9  Z M 5.399999999999999 9  L 5.399999999999999 7.199999999999999  L 7.200000000000003 7.199999999999999  L 7.200000000000003 9  L 5.399999999999999 9  Z " fill-rule="evenodd" />
    </mask>
  </defs>
  <g transform="matrix(1 0 0 1 -33 -15 )">
    <path d="M 0 10.80567  L 0 5.3943660000000015  C 0 2.4151409999999984  2.4088860000000025 0  5.400593999999998 0  L 12.59937 0  C 15.582059999999998 0  18 2.4253019999999985  18 5.3943660000000015  L 18 16  L 5.400593999999998 16  C 2.417931000000003 16.2  0 13.774679999999996  0 10.80567  Z M 5.400593999999998 14.399999999999999  L 16.200000000000003 14.399999999999999  L 16.200000000000003 5.3943660000000015  C 16.200000000000003 3.415851  14.584409999999998 1.8000000000000007  12.59937 1.8000000000000007  L 5.400593999999998 1.8000000000000007  C 3.4061220000000034 1.8000000000000007  1.8000000000000007 3.406122  1.8000000000000007 5.3943660000000015  L 1.8000000000000007 10.80567  C 1.8000000000000007 12.78414  3.415607999999999 14.399999999999999  5.400593999999998 14.399999999999999  Z M 10.799999999999997 9  L 10.799999999999997 7.199999999999999  L 12.600000000000001 7.199999999999999  L 12.600000000000001 9  L 10.799999999999997 9  Z M 5.399999999999999 9  L 5.399999999999999 7.199999999999999  L 7.200000000000003 7.199999999999999  L 7.200000000000003 9  L 5.399999999999999 9  Z " fill-rule="nonzero" fill="rgba(51, 51, 51, 1)" stroke="none" transform="matrix(1 0 0 1 33 15 )" class="fill" />
    <path d="M 0 10.80567  L 0 5.3943660000000015  C 0 2.4151409999999984  2.4088860000000025 0  5.400593999999998 0  L 12.59937 0  C 15.582059999999998 0  18 2.4253019999999985  18 5.3943660000000015  L 18 16  L 5.400593999999998 16  C 2.417931000000003 16.2  0 13.774679999999996  0 10.80567  Z " stroke-width="0" stroke-dasharray="0" stroke="rgba(255, 255, 255, 0)" fill="none" transform="matrix(1 0 0 1 33 15 )" class="stroke" mask="url(#Clip203)" />
    <path d="M 5.400593999999998 14.399999999999999  L 16.200000000000003 14.399999999999999  L 16.200000000000003 5.3943660000000015  C 16.200000000000003 3.415851  14.584409999999998 1.8000000000000007  12.59937 1.8000000000000007  L 5.400593999999998 1.8000000000000007  C 3.4061220000000034 1.8000000000000007  1.8000000000000007 3.406122  1.8000000000000007 5.3943660000000015  L 1.8000000000000007 10.80567  C 1.8000000000000007 12.78414  3.415607999999999 14.399999999999999  5.400593999999998 14.399999999999999  Z " stroke-width="0" stroke-dasharray="0" stroke="rgba(255, 255, 255, 0)" fill="none" transform="matrix(1 0 0 1 33 15 )" class="stroke" mask="url(#Clip203)" />
    <path d="M 10.799999999999997 9  L 10.799999999999997 7.199999999999999  L 12.600000000000001 7.199999999999999  L 12.600000000000001 9  L 10.799999999999997 9  Z " stroke-width="0" stroke-dasharray="0" stroke="rgba(255, 255, 255, 0)" fill="none" transform="matrix(1 0 0 1 33 15 )" class="stroke" mask="url(#Clip203)" />
    <path d="M 5.399999999999999 9  L 5.399999999999999 7.199999999999999  L 7.200000000000003 7.199999999999999  L 7.200000000000003 9  L 5.399999999999999 9  Z " stroke-width="0" stroke-dasharray="0" stroke="rgba(255, 255, 255, 0)" fill="none" transform="matrix(1 0 0 1 33 15 )" class="stroke" mask="url(#Clip203)" />
  </g>
</svg>
