<?xml version="1.0" encoding="utf-8"?>
<svg version="1.1" xmlns:xlink="http://www.w3.org/1999/xlink" width="18px" height="18px" xmlns="http://www.w3.org/2000/svg">
  <defs>
    <pattern id="BGPattern" patternUnits="userSpaceOnUse" alignment="0 0" imageRepeat="None" />
    <mask fill="white" id="Clip204">
      <path d="M 12.44444444861108 1.9999999921875116  L 12.44444444861108 0  L 17.77777777777777 0  L 17.77777777777777 5.999999999999986  L 15.999999987500019 5.999999999999986  L 15.999999987500019 1.9999999921875116  L 12.44444444861108 1.9999999921875116  Z M 0 5.999999999999986  L 0 0  L 5.333333329166749 0  L 5.333333329166749 1.9999999921874974  L 1.7777777902776961 1.9999999921874974  L 1.7777777902776961 5.999999999999986  L 0 5.999999999999986  Z M 12.44444444861108 16.000000007812503  L 15.999999987500019 16.000000007812503  L 15.999999987500019 12.000000000000014  L 17.77777777777777 12.000000000000014  L 17.77777777777777 18  L 12.44444444861108 18  L 12.44444444861108 16.000000007812503  Z M 1.7777777902776961 12.000000000000014  L 1.7777777902776961 16.000000007812503  L 5.333333329166749 16.000000007812503  L 5.333333329166749 18  L 0 18  L 0 12.000000000000014  L 1.7777777902776961 12.000000000000014  Z " fill-rule="evenodd" />
    </mask>
  </defs>
  <g transform="matrix(1 0 0 1 -347 -67 )">
    <path d="M 12.44444444861108 1.9999999921875116  L 12.44444444861108 0  L 17.77777777777777 0  L 17.77777777777777 5.999999999999986  L 15.999999987500019 5.999999999999986  L 15.999999987500019 1.9999999921875116  L 12.44444444861108 1.9999999921875116  Z M 0 5.999999999999986  L 0 0  L 5.333333329166749 0  L 5.333333329166749 1.9999999921874974  L 1.7777777902776961 1.9999999921874974  L 1.7777777902776961 5.999999999999986  L 0 5.999999999999986  Z M 12.44444444861108 16.000000007812503  L 15.999999987500019 16.000000007812503  L 15.999999987500019 12.000000000000014  L 17.77777777777777 12.000000000000014  L 17.77777777777777 18  L 12.44444444861108 18  L 12.44444444861108 16.000000007812503  Z M 1.7777777902776961 12.000000000000014  L 1.7777777902776961 16.000000007812503  L 5.333333329166749 16.000000007812503  L 5.333333329166749 18  L 0 18  L 0 12.000000000000014  L 1.7777777902776961 12.000000000000014  Z " fill-rule="nonzero" fill="rgba(51, 51, 51, 1)" stroke="none" transform="matrix(1 0 0 1 347 67 )" class="fill" />
    <path d="M 12.44444444861108 1.9999999921875116  L 12.44444444861108 0  L 17.77777777777777 0  L 17.77777777777777 5.999999999999986  L 15.999999987500019 5.999999999999986  L 15.999999987500019 1.9999999921875116  L 12.44444444861108 1.9999999921875116  Z " stroke-width="0" stroke-dasharray="0" stroke="rgba(255, 255, 255, 0)" fill="none" transform="matrix(1 0 0 1 347 67 )" class="stroke" mask="url(#Clip204)" />
    <path d="M 0 5.999999999999986  L 0 0  L 5.333333329166749 0  L 5.333333329166749 1.9999999921874974  L 1.7777777902776961 1.9999999921874974  L 1.7777777902776961 5.999999999999986  L 0 5.999999999999986  Z " stroke-width="0" stroke-dasharray="0" stroke="rgba(255, 255, 255, 0)" fill="none" transform="matrix(1 0 0 1 347 67 )" class="stroke" mask="url(#Clip204)" />
    <path d="M 12.44444444861108 16.000000007812503  L 15.999999987500019 16.000000007812503  L 15.999999987500019 12.000000000000014  L 17.77777777777777 12.000000000000014  L 17.77777777777777 18  L 12.44444444861108 18  L 12.44444444861108 16.000000007812503  Z " stroke-width="0" stroke-dasharray="0" stroke="rgba(255, 255, 255, 0)" fill="none" transform="matrix(1 0 0 1 347 67 )" class="stroke" mask="url(#Clip204)" />
    <path d="M 1.7777777902776961 12.000000000000014  L 1.7777777902776961 16.000000007812503  L 5.333333329166749 16.000000007812503  L 5.333333329166749 18  L 0 18  L 0 12.000000000000014  L 1.7777777902776961 12.000000000000014  Z " stroke-width="0" stroke-dasharray="0" stroke="rgba(255, 255, 255, 0)" fill="none" transform="matrix(1 0 0 1 347 67 )" class="stroke" mask="url(#Clip204)" />
  </g>
</svg>