<?xml version="1.0" encoding="utf-8"?>
<svg version="1.1" xmlns:xlink="http://www.w3.org/1999/xlink" width="18px" height="18px" xmlns="http://www.w3.org/2000/svg">
  <defs>
    <pattern id="BGPattern" patternUnits="userSpaceOnUse" alignment="0 0" imageRepeat="None" />
    <mask fill="white" id="Clip205">
      <path d="M 0 7.810714285714198  C 0 3.4992000000000303  3.4560000000000173 0  7.714285714285836 0  C 11.972571428571484 0  15.428571428571388 3.4992000000000303  15.428571428571388 7.810714285714198  C 15.428571428571388 12.122228571428622  11.972571428571484 15.621428571428652  7.714285714285836 15.621428571428652  C 3.4560000000000173 15.621428571428652  0 12.122228571428622  0 7.810714285714198  Z M 1.7142857142857224 7.810714285714198  C 1.7142857142857224 11.166717857142714  4.398857142857025 13.8857142857143  7.714285714285836 13.8857142857143  C 11.028857142857134 13.8857142857143  13.71428571428578 11.166717857142714  13.71428571428578 7.810714285714198  C 13.71428571428578 4.45384285714286  11.028857142857134 1.7357142857143515  7.714285714285836 1.7357142857143515  C 4.398857142857025 1.7357142857143515  1.7142857142857224 4.45384285714286  1.7142857142857224 7.810714285714198  Z M 13.775142857142896 15.174482142857158  L 14.987142857142942 13.94733214285722  L 17.412000000000035 16.401632142857096  L 16.199142857142817 17.629649999999856  L 13.775142857142896 15.174482142857158  Z " fill-rule="evenodd" />
    </mask>
  </defs>
  <g transform="matrix(1 0 0 1 -308 -67 )">
    <path d="M 0 7.810714285714198  C 0 3.4992000000000303  3.4560000000000173 0  7.714285714285836 0  C 11.972571428571484 0  15.428571428571388 3.4992000000000303  15.428571428571388 7.810714285714198  C 15.428571428571388 12.122228571428622  11.972571428571484 15.621428571428652  7.714285714285836 15.621428571428652  C 3.4560000000000173 15.621428571428652  0 12.122228571428622  0 7.810714285714198  Z M 1.7142857142857224 7.810714285714198  C 1.7142857142857224 11.166717857142714  4.398857142857025 13.8857142857143  7.714285714285836 13.8857142857143  C 11.028857142857134 13.8857142857143  13.71428571428578 11.166717857142714  13.71428571428578 7.810714285714198  C 13.71428571428578 4.45384285714286  11.028857142857134 1.7357142857143515  7.714285714285836 1.7357142857143515  C 4.398857142857025 1.7357142857143515  1.7142857142857224 4.45384285714286  1.7142857142857224 7.810714285714198  Z M 13.775142857142896 15.174482142857158  L 14.987142857142942 13.94733214285722  L 17.412000000000035 16.401632142857096  L 16.199142857142817 17.629649999999856  L 13.775142857142896 15.174482142857158  Z " fill-rule="nonzero" fill="rgba(51, 51, 51, 1)" stroke="none" transform="matrix(1 0 0 1 308 67 )" class="fill" />
    <path d="M 0 7.810714285714198  C 0 3.4992000000000303  3.4560000000000173 0  7.714285714285836 0  C 11.972571428571484 0  15.428571428571388 3.4992000000000303  15.428571428571388 7.810714285714198  C 15.428571428571388 12.122228571428622  11.972571428571484 15.621428571428652  7.714285714285836 15.621428571428652  C 3.4560000000000173 15.621428571428652  0 12.122228571428622  0 7.810714285714198  Z " stroke-width="0" stroke-dasharray="0" stroke="rgba(255, 255, 255, 0)" fill="none" transform="matrix(1 0 0 1 308 67 )" class="stroke" mask="url(#Clip205)" />
    <path d="M 1.7142857142857224 7.810714285714198  C 1.7142857142857224 11.166717857142714  4.398857142857025 13.8857142857143  7.714285714285836 13.8857142857143  C 11.028857142857134 13.8857142857143  13.71428571428578 11.166717857142714  13.71428571428578 7.810714285714198  C 13.71428571428578 4.45384285714286  11.028857142857134 1.7357142857143515  7.714285714285836 1.7357142857143515  C 4.398857142857025 1.7357142857143515  1.7142857142857224 4.45384285714286  1.7142857142857224 7.810714285714198  Z " stroke-width="0" stroke-dasharray="0" stroke="rgba(255, 255, 255, 0)" fill="none" transform="matrix(1 0 0 1 308 67 )" class="stroke" mask="url(#Clip205)" />
    <path d="M 13.775142857142896 15.174482142857158  L 14.987142857142942 13.94733214285722  L 17.412000000000035 16.401632142857096  L 16.199142857142817 17.629649999999856  L 13.775142857142896 15.174482142857158  Z " stroke-width="0" stroke-dasharray="0" stroke="rgba(255, 255, 255, 0)" fill="none" transform="matrix(1 0 0 1 308 67 )" class="stroke" mask="url(#Clip205)" />
  </g>
</svg>