<?xml version="1.0" encoding="utf-8"?>
<svg version="1.1" xmlns:xlink="http://www.w3.org/1999/xlink" width="140px" height="140px" xmlns="http://www.w3.org/2000/svg">
  <defs>
    <pattern id="BGPattern" patternUnits="userSpaceOnUse" alignment="0 0" imageRepeat="None" />
    <mask fill="white" id="Clip243">
      <path d="M 70 0  C 108.65993248815555 0  140 31.34006751184446  140 70  C 140 108.65993248815555  108.65993248815555 140  70 140  C 32.454222465162424 140  1.5948674025566738 110.37849978666507  0.05862053089743635 72.8641644434282  L 70 70  L 45.779480137333316 4.3237758577568  C 53.53439797660622 1.4638650755435152  61.73453931253115 0  70 0  Z " fill-rule="evenodd" />
    </mask>
  </defs>
  <g transform="matrix(1 0 0 1 -128 -179 )">
    <path d="M 70 0  C 108.65993248815555 0  140 31.34006751184446  140 70  C 140 108.65993248815555  108.65993248815555 140  70 140  C 32.454222465162424 140  1.5948674025566738 110.37849978666507  0.05862053089743635 72.8641644434282  L 70 70  L 45.779480137333316 4.3237758577568  C 53.53439797660622 1.4638650755435152  61.73453931253115 0  70 0  Z " fill-rule="nonzero" fill="rgba(37, 97, 239, 1)" stroke="none" transform="matrix(1 0 0 1 128 179 )" class="fill" />
    <path d="M 70 0  C 108.65993248815555 0  140 31.34006751184446  140 70  C 140 108.65993248815555  108.65993248815555 140  70 140  C 32.454222465162424 140  1.5948674025566738 110.37849978666507  0.05862053089743635 72.8641644434282  L 70 70  L 45.779480137333316 4.3237758577568  C 53.53439797660622 1.4638650755435152  61.73453931253115 0  70 0  Z " stroke-width="0" stroke-dasharray="0" stroke="rgba(121, 121, 121, 1)" fill="none" transform="matrix(1 0 0 1 128 179 )" class="stroke" mask="url(#Clip243)" />
  </g>
</svg>