<?xml version="1.0" encoding="utf-8"?>
<svg version="1.1" xmlns:xlink="http://www.w3.org/1999/xlink" width="20px" height="19px" xmlns="http://www.w3.org/2000/svg">
  <defs>
    <pattern id="BGPattern" patternUnits="userSpaceOnUse" alignment="0 0" imageRepeat="None" />
    <mask fill="white" id="Clip257">
      <path d="M 0.0936222910216884 14.401592215833686  L 3.5958602388324152 5.731977001326783  L 3.3140380362671635 5.03458646616545  C 3.268083964927314 4.920857950373886  3.2444617250059764 4.799343752772302  3.2444617250059764 4.67668181092867  C 3.2444617250059764 4.2870866024873635  3.481040241986875 3.936522433142727  3.842335249889402 3.7907474568775115  L 12.70015037593987 0.21208314904907866  C 13.188981308341681 0.01487615255706487  13.7451685385941 0.25086028099619284  13.943034055727537 0.7394250331711589  L 19.311985846970288 14.026147722246805  C 19.357939918310194 14.13987623803834  19.38156215823159 14.261390435639868  19.38156215823159 14.38405237748347  C 19.38156215823159 14.773647585924834  19.144983641250633 15.124211755269414  18.783688633348106 15.269986731534658  L 9.925873507297638 18.84865103936309  C 9.812144991506216 18.89460511070294  9.690630793904631 18.918227350624335  9.567968852060972 18.918227350624335  C 9.178373643619636 18.918227350624335  8.827809474274943 18.681648833643408  8.682034498009727 18.320353825740824  L 8.597965501990245 18.11304732419285  L 8.597965501990245 18.151260504201673  L 4.7766475011056855 18.151260504201673  C 4.249033587070187 18.151260504201673  3.821318000884503 17.72354491801616  3.821318000884503 17.19593100398052  L 3.821318000884503 16.93799203892084  L 0.6209641751437402 15.645431225121598  C 0.13187528708527907 15.447566643171086  -0.1042197926306585 14.890690205145432  0.0936222910216884 14.401592215833686  Z M 5.731977001326811 11.017815126050408  L 5.731977001326811 16.240601503759365  L 7.842299867315376 16.240601503759365  L 5.731977001326811 11.017815126050408  Z M 3.821318000884503 14.91078283945157  L 3.821318000884503 10.275524104378604  L 2.2230517470145514 14.23154356479435  L 3.821318000884503 14.91078283945157  Z M 12.530101724900476 2.341512605042084  L 5.443467492260027 5.203679787704573  L 10.095922158336975 16.719221583370114  L 17.182556390977368 13.856099071207467  L 12.530101724900476 2.341512605042084  Z M 8.288438743918618 7.145864661654173  C 8.174745284953417 7.191771077160865  8.053279434429498 7.215367956988558  7.9306678460857825 7.215367956988558  C 7.402920330741608 7.215367956988558  6.975096439296294 6.787544065543244  6.975096439296294 6.259796550199013  C 6.975096439296294 5.870190900021242  7.211629187191477 5.519598817738597  7.572896948253003 5.373728438743939  C 7.686728552769864 5.327704878966216  7.80836195232132 5.304046200614806  7.931145510835904 5.304046200614806  C 8.45899185355671 5.304046200614806  8.886895860420111 5.731950207478177  8.886895860420111 6.259796550199013  C 8.886895860420111 6.649313718511564  8.650512164410031 6.999860042654944  8.289394073418805 7.145864661654173  Z " fill-rule="evenodd" />
    </mask>
  </defs>
  <g transform="matrix(1 0 0 1 -42 -209 )">
    <path d="M 0.0936222910216884 14.401592215833686  L 3.5958602388324152 5.731977001326783  L 3.3140380362671635 5.03458646616545  C 3.268083964927314 4.920857950373886  3.2444617250059764 4.799343752772302  3.2444617250059764 4.67668181092867  C 3.2444617250059764 4.2870866024873635  3.481040241986875 3.936522433142727  3.842335249889402 3.7907474568775115  L 12.70015037593987 0.21208314904907866  C 13.188981308341681 0.01487615255706487  13.7451685385941 0.25086028099619284  13.943034055727537 0.7394250331711589  L 19.311985846970288 14.026147722246805  C 19.357939918310194 14.13987623803834  19.38156215823159 14.261390435639868  19.38156215823159 14.38405237748347  C 19.38156215823159 14.773647585924834  19.144983641250633 15.124211755269414  18.783688633348106 15.269986731534658  L 9.925873507297638 18.84865103936309  C 9.812144991506216 18.89460511070294  9.690630793904631 18.918227350624335  9.567968852060972 18.918227350624335  C 9.178373643619636 18.918227350624335  8.827809474274943 18.681648833643408  8.682034498009727 18.320353825740824  L 8.597965501990245 18.11304732419285  L 8.597965501990245 18.151260504201673  L 4.7766475011056855 18.151260504201673  C 4.249033587070187 18.151260504201673  3.821318000884503 17.72354491801616  3.821318000884503 17.19593100398052  L 3.821318000884503 16.93799203892084  L 0.6209641751437402 15.645431225121598  C 0.13187528708527907 15.447566643171086  -0.1042197926306585 14.890690205145432  0.0936222910216884 14.401592215833686  Z M 5.731977001326811 11.017815126050408  L 5.731977001326811 16.240601503759365  L 7.842299867315376 16.240601503759365  L 5.731977001326811 11.017815126050408  Z M 3.821318000884503 14.91078283945157  L 3.821318000884503 10.275524104378604  L 2.2230517470145514 14.23154356479435  L 3.821318000884503 14.91078283945157  Z M 12.530101724900476 2.341512605042084  L 5.443467492260027 5.203679787704573  L 10.095922158336975 16.719221583370114  L 17.182556390977368 13.856099071207467  L 12.530101724900476 2.341512605042084  Z M 8.288438743918618 7.145864661654173  C 8.174745284953417 7.191771077160865  8.053279434429498 7.215367956988558  7.9306678460857825 7.215367956988558  C 7.402920330741608 7.215367956988558  6.975096439296294 6.787544065543244  6.975096439296294 6.259796550199013  C 6.975096439296294 5.870190900021242  7.211629187191477 5.519598817738597  7.572896948253003 5.373728438743939  C 7.686728552769864 5.327704878966216  7.80836195232132 5.304046200614806  7.931145510835904 5.304046200614806  C 8.45899185355671 5.304046200614806  8.886895860420111 5.731950207478177  8.886895860420111 6.259796550199013  C 8.886895860420111 6.649313718511564  8.650512164410031 6.999860042654944  8.289394073418805 7.145864661654173  Z " fill-rule="nonzero" fill="rgba(255, 255, 255, 1)" stroke="none" transform="matrix(1 0 0 1 42 209 )" class="fill" />
    <path d="M 0.0936222910216884 14.401592215833686  L 3.5958602388324152 5.731977001326783  L 3.3140380362671635 5.03458646616545  C 3.268083964927314 4.920857950373886  3.2444617250059764 4.799343752772302  3.2444617250059764 4.67668181092867  C 3.2444617250059764 4.2870866024873635  3.481040241986875 3.936522433142727  3.842335249889402 3.7907474568775115  L 12.70015037593987 0.21208314904907866  C 13.188981308341681 0.01487615255706487  13.7451685385941 0.25086028099619284  13.943034055727537 0.7394250331711589  L 19.311985846970288 14.026147722246805  C 19.357939918310194 14.13987623803834  19.38156215823159 14.261390435639868  19.38156215823159 14.38405237748347  C 19.38156215823159 14.773647585924834  19.144983641250633 15.124211755269414  18.783688633348106 15.269986731534658  L 9.925873507297638 18.84865103936309  C 9.812144991506216 18.89460511070294  9.690630793904631 18.918227350624335  9.567968852060972 18.918227350624335  C 9.178373643619636 18.918227350624335  8.827809474274943 18.681648833643408  8.682034498009727 18.320353825740824  L 8.597965501990245 18.11304732419285  L 8.597965501990245 18.151260504201673  L 4.7766475011056855 18.151260504201673  C 4.249033587070187 18.151260504201673  3.821318000884503 17.72354491801616  3.821318000884503 17.19593100398052  L 3.821318000884503 16.93799203892084  L 0.6209641751437402 15.645431225121598  C 0.13187528708527907 15.447566643171086  -0.1042197926306585 14.890690205145432  0.0936222910216884 14.401592215833686  Z " stroke-width="0" stroke-dasharray="0" stroke="rgba(255, 255, 255, 0)" fill="none" transform="matrix(1 0 0 1 42 209 )" class="stroke" mask="url(#Clip257)" />
    <path d="M 5.731977001326811 11.017815126050408  L 5.731977001326811 16.240601503759365  L 7.842299867315376 16.240601503759365  L 5.731977001326811 11.017815126050408  Z " stroke-width="0" stroke-dasharray="0" stroke="rgba(255, 255, 255, 0)" fill="none" transform="matrix(1 0 0 1 42 209 )" class="stroke" mask="url(#Clip257)" />
    <path d="M 3.821318000884503 14.91078283945157  L 3.821318000884503 10.275524104378604  L 2.2230517470145514 14.23154356479435  L 3.821318000884503 14.91078283945157  Z " stroke-width="0" stroke-dasharray="0" stroke="rgba(255, 255, 255, 0)" fill="none" transform="matrix(1 0 0 1 42 209 )" class="stroke" mask="url(#Clip257)" />
    <path d="M 12.530101724900476 2.341512605042084  L 5.443467492260027 5.203679787704573  L 10.095922158336975 16.719221583370114  L 17.182556390977368 13.856099071207467  L 12.530101724900476 2.341512605042084  Z " stroke-width="0" stroke-dasharray="0" stroke="rgba(255, 255, 255, 0)" fill="none" transform="matrix(1 0 0 1 42 209 )" class="stroke" mask="url(#Clip257)" />
    <path d="M 8.288438743918618 7.145864661654173  C 8.174745284953417 7.191771077160865  8.053279434429498 7.215367956988558  7.9306678460857825 7.215367956988558  C 7.402920330741608 7.215367956988558  6.975096439296294 6.787544065543244  6.975096439296294 6.259796550199013  C 6.975096439296294 5.870190900021242  7.211629187191477 5.519598817738597  7.572896948253003 5.373728438743939  C 7.686728552769864 5.327704878966216  7.80836195232132 5.304046200614806  7.931145510835904 5.304046200614806  C 8.45899185355671 5.304046200614806  8.886895860420111 5.731950207478177  8.886895860420111 6.259796550199013  C 8.886895860420111 6.649313718511564  8.650512164410031 6.999860042654944  8.289394073418805 7.145864661654173  Z " stroke-width="0" stroke-dasharray="0" stroke="rgba(255, 255, 255, 0)" fill="none" transform="matrix(1 0 0 1 42 209 )" class="stroke" mask="url(#Clip257)" />
  </g>
</svg>