<?xml version="1.0" encoding="utf-8"?>
<svg version="1.1" xmlns:xlink="http://www.w3.org/1999/xlink" width="18px" height="18px" xmlns="http://www.w3.org/2000/svg">
  <defs>
    <pattern id="BGPattern" patternUnits="userSpaceOnUse" alignment="0 0" imageRepeat="None" />
    <mask fill="white" id="Clip258">
      <path d="M 4.5 0  L 6.299999999999997 0  L 6.299999999999997 1.8000000000000114  L 11.700000000000003 1.8000000000000114  L 11.700000000000003 0  L 13.5 0  L 13.5 1.8000000000000114  L 17.099999999999994 1.8000000000000114  C 17.597056274847716 1.8000000000000114  18 2.202943725152295  18 2.6999999999999886  L 18 17.100000000000023  C 18 17.597056274847716  17.597056274847716 18  17.099999999999994 18  L 0.8999999999999986 18  C 0.4029437251522907 18  0 17.597056274847716  0 17.100000000000023  L 0 2.6999999999999886  C 0 2.202943725152295  0.4029437251522907 1.8000000000000114  0.8999999999999986 1.8000000000000114  L 4.5 1.8000000000000114  L 4.5 0  Z M 16.200000000000003 16  L 16.200000000000003 8.100000000000023  L 1.7999999999999972 8.100000000000023  L 1.7999999999999972 16  L 16.200000000000003 16  Z M 11.732399999999998 9.12239999999997  L 13.004999999999988 10.394999999999982  L 8.549999999999997 14.850000000000023  L 5.367599999999996 11.667599999999993  L 6.641999999999996 10.394999999999982  L 8.550900000000027 12.3048  L 11.733299999999979 9.122400000000027  Z M 4.5 4.5  L 4.5 3.6000000000000227  L 1.7999999999999972 3.6000000000000227  L 1.7999999999999972 6.300000000000011  L 16.200000000000003 6.300000000000011  L 16.200000000000003 3.6000000000000227  L 13.5 3.6000000000000227  L 13.5 4.5  L 11.700000000000003 4.5  L 11.700000000000003 3.6000000000000227  L 6.299999999999997 3.6000000000000227  L 6.299999999999997 4.5  L 4.5 4.5  Z " fill-rule="evenodd" />
    </mask>
  </defs>
  <g transform="matrix(1 0 0 1 -43 -289 )">
    <path d="M 4.5 0  L 6.299999999999997 0  L 6.299999999999997 1.8000000000000114  L 11.700000000000003 1.8000000000000114  L 11.700000000000003 0  L 13.5 0  L 13.5 1.8000000000000114  L 17.099999999999994 1.8000000000000114  C 17.597056274847716 1.8000000000000114  18 2.202943725152295  18 2.6999999999999886  L 18 17.100000000000023  C 18 17.597056274847716  17.597056274847716 18  17.099999999999994 18  L 0.8999999999999986 18  C 0.4029437251522907 18  0 17.597056274847716  0 17.100000000000023  L 0 2.6999999999999886  C 0 2.202943725152295  0.4029437251522907 1.8000000000000114  0.8999999999999986 1.8000000000000114  L 4.5 1.8000000000000114  L 4.5 0  Z M 16.200000000000003 16  L 16.200000000000003 8.100000000000023  L 1.7999999999999972 8.100000000000023  L 1.7999999999999972 16  L 16.200000000000003 16  Z M 11.732399999999998 9.12239999999997  L 13.004999999999988 10.394999999999982  L 8.549999999999997 14.850000000000023  L 5.367599999999996 11.667599999999993  L 6.641999999999996 10.394999999999982  L 8.550900000000027 12.3048  L 11.733299999999979 9.122400000000027  Z M 4.5 4.5  L 4.5 3.6000000000000227  L 1.7999999999999972 3.6000000000000227  L 1.7999999999999972 6.300000000000011  L 16.200000000000003 6.300000000000011  L 16.200000000000003 3.6000000000000227  L 13.5 3.6000000000000227  L 13.5 4.5  L 11.700000000000003 4.5  L 11.700000000000003 3.6000000000000227  L 6.299999999999997 3.6000000000000227  L 6.299999999999997 4.5  L 4.5 4.5  Z " fill-rule="nonzero" fill="rgba(255, 255, 255, 1)" stroke="none" transform="matrix(1 0 0 1 43 289 )" class="fill" />
    <path d="M 4.5 0  L 6.299999999999997 0  L 6.299999999999997 1.8000000000000114  L 11.700000000000003 1.8000000000000114  L 11.700000000000003 0  L 13.5 0  L 13.5 1.8000000000000114  L 17.099999999999994 1.8000000000000114  C 17.597056274847716 1.8000000000000114  18 2.202943725152295  18 2.6999999999999886  L 18 17.100000000000023  C 18 17.597056274847716  17.597056274847716 18  17.099999999999994 18  L 0.8999999999999986 18  C 0.4029437251522907 18  0 17.597056274847716  0 17.100000000000023  L 0 2.6999999999999886  C 0 2.202943725152295  0.4029437251522907 1.8000000000000114  0.8999999999999986 1.8000000000000114  L 4.5 1.8000000000000114  L 4.5 0  Z " stroke-width="0" stroke-dasharray="0" stroke="rgba(255, 255, 255, 0)" fill="none" transform="matrix(1 0 0 1 43 289 )" class="stroke" mask="url(#Clip258)" />
    <path d="M 16.200000000000003 16  L 16.200000000000003 8.100000000000023  L 1.7999999999999972 8.100000000000023  L 1.7999999999999972 16  L 16.200000000000003 16  Z " stroke-width="0" stroke-dasharray="0" stroke="rgba(255, 255, 255, 0)" fill="none" transform="matrix(1 0 0 1 43 289 )" class="stroke" mask="url(#Clip258)" />
    <path d="M 11.732399999999998 9.12239999999997  L 13.004999999999988 10.394999999999982  L 8.549999999999997 14.850000000000023  L 5.367599999999996 11.667599999999993  L 6.641999999999996 10.394999999999982  L 8.550900000000027 12.3048  L 11.733299999999979 9.122400000000027  Z " stroke-width="0" stroke-dasharray="0" stroke="rgba(255, 255, 255, 0)" fill="none" transform="matrix(1 0 0 1 43 289 )" class="stroke" mask="url(#Clip258)" />
    <path d="M 4.5 4.5  L 4.5 3.6000000000000227  L 1.7999999999999972 3.6000000000000227  L 1.7999999999999972 6.300000000000011  L 16.200000000000003 6.300000000000011  L 16.200000000000003 3.6000000000000227  L 13.5 3.6000000000000227  L 13.5 4.5  L 11.700000000000003 4.5  L 11.700000000000003 3.6000000000000227  L 6.299999999999997 3.6000000000000227  L 6.299999999999997 4.5  L 4.5 4.5  Z " stroke-width="0" stroke-dasharray="0" stroke="rgba(255, 255, 255, 0)" fill="none" transform="matrix(1 0 0 1 43 289 )" class="stroke" mask="url(#Clip258)" />
  </g>
</svg>