<?xml version="1.0" encoding="utf-8"?>
<svg version="1.1" xmlns:xlink="http://www.w3.org/1999/xlink" width="17px" height="17px" xmlns="http://www.w3.org/2000/svg">
  <defs>
    <pattern id="BGPattern" patternUnits="userSpaceOnUse" alignment="0 0" imageRepeat="None" />
    <mask fill="white" id="Clip256">
      <path d="M 12.29504761904763 5.80509523809522  L 2.400238095238109 2.5062857142856956  L 5.2708095238095325 12.55247619047617  L 7.731761904761903 7.630571428571443  L 12.29504761904763 5.80509523809522  Z M 0.7277619047619055 0.24285714285714732  L 15.951666666666654 5.316952380952358  C 16.117280091078996 5.371845872029468  16.22908110781406 5.526685340992287  16.22908110781406 5.7011591261527315  C 16.22908110781406 5.866790136771357  16.128168655819294 6.015708551963883  15.97433333333332 6.077095238095239  L 8.904761904761898 8.904761904761926  L 5.322619047619035 16.069047619047637  C 5.254075031226343 16.20622817934273  5.11389200807654 16.29289219171079  4.960540163268163 16.29289219171079  C 4.7798611089267595 16.29289219171079  4.621062675272917 16.173142839950742  4.571380952380963 15.99942857142858  L 0.21047619047620003 0.7374761904761868  C 0.2001991625164976 0.7014042080693628  0.19498582834675204 0.6640788333238277  0.19498582834675204 0.626571431141798  C 0.19498582834675204 0.40302760382932945  0.3762039057962028 0.22180952637988582  0.5997477331086714 0.22180952637988582  C 0.6435448841535703 0.22180952637988582  0.6870517291027198 0.2289178101729732  0.7285714285714278 0.24285714285714732  Z " fill-rule="evenodd" />
    </mask>
  </defs>
  <g transform="matrix(1 0 0 1 -44 -130 )">
    <path d="M 12.29504761904763 5.80509523809522  L 2.400238095238109 2.5062857142856956  L 5.2708095238095325 12.55247619047617  L 7.731761904761903 7.630571428571443  L 12.29504761904763 5.80509523809522  Z M 0.7277619047619055 0.24285714285714732  L 15.951666666666654 5.316952380952358  C 16.117280091078996 5.371845872029468  16.22908110781406 5.526685340992287  16.22908110781406 5.7011591261527315  C 16.22908110781406 5.866790136771357  16.128168655819294 6.015708551963883  15.97433333333332 6.077095238095239  L 8.904761904761898 8.904761904761926  L 5.322619047619035 16.069047619047637  C 5.254075031226343 16.20622817934273  5.11389200807654 16.29289219171079  4.960540163268163 16.29289219171079  C 4.7798611089267595 16.29289219171079  4.621062675272917 16.173142839950742  4.571380952380963 15.99942857142858  L 0.21047619047620003 0.7374761904761868  C 0.2001991625164976 0.7014042080693628  0.19498582834675204 0.6640788333238277  0.19498582834675204 0.626571431141798  C 0.19498582834675204 0.40302760382932945  0.3762039057962028 0.22180952637988582  0.5997477331086714 0.22180952637988582  C 0.6435448841535703 0.22180952637988582  0.6870517291027198 0.2289178101729732  0.7285714285714278 0.24285714285714732  Z " fill-rule="nonzero" fill="rgba(255, 255, 255, 1)" stroke="none" transform="matrix(1 0 0 1 44 130 )" class="fill" />
    <path d="M 12.29504761904763 5.80509523809522  L 2.400238095238109 2.5062857142856956  L 5.2708095238095325 12.55247619047617  L 7.731761904761903 7.630571428571443  L 12.29504761904763 5.80509523809522  Z " stroke-width="0" stroke-dasharray="0" stroke="rgba(255, 255, 255, 0)" fill="none" transform="matrix(1 0 0 1 44 130 )" class="stroke" mask="url(#Clip256)" />
    <path d="M 0.7277619047619055 0.24285714285714732  L 15.951666666666654 5.316952380952358  C 16.117280091078996 5.371845872029468  16.22908110781406 5.526685340992287  16.22908110781406 5.7011591261527315  C 16.22908110781406 5.866790136771357  16.128168655819294 6.015708551963883  15.97433333333332 6.077095238095239  L 8.904761904761898 8.904761904761926  L 5.322619047619035 16.069047619047637  C 5.254075031226343 16.20622817934273  5.11389200807654 16.29289219171079  4.960540163268163 16.29289219171079  C 4.7798611089267595 16.29289219171079  4.621062675272917 16.173142839950742  4.571380952380963 15.99942857142858  L 0.21047619047620003 0.7374761904761868  C 0.2001991625164976 0.7014042080693628  0.19498582834675204 0.6640788333238277  0.19498582834675204 0.626571431141798  C 0.19498582834675204 0.40302760382932945  0.3762039057962028 0.22180952637988582  0.5997477331086714 0.22180952637988582  C 0.6435448841535703 0.22180952637988582  0.6870517291027198 0.2289178101729732  0.7285714285714278 0.24285714285714732  Z " stroke-width="0" stroke-dasharray="0" stroke="rgba(255, 255, 255, 0)" fill="none" transform="matrix(1 0 0 1 44 130 )" class="stroke" mask="url(#Clip256)" />
  </g>
</svg>