<?xml version="1.0" encoding="utf-8"?>
<svg version="1.1" xmlns:xlink="http://www.w3.org/1999/xlink" width="17px" height="16px" xmlns="http://www.w3.org/2000/svg">
  <defs>
    <pattern id="BGPattern" patternUnits="userSpaceOnUse" alignment="0 0" imageRepeat="None" />
    <mask fill="white" id="Clip224">
      <path d="M 14.616565656565655 7.69292929292925  L 14.616565656565655 14.616565656565626  C 14.616565656565655 15.041434409566818  14.27214148027386 15.385858585858557  13.847272727272696 15.385858585858557  L 3.077171717171744 15.385858585858557  C 2.6523029641705875 15.385858585858557  2.307878787878792 15.041434409566818  2.307878787878792 14.616565656565626  L 2.307878787878792 7.69292929292925  L 0 7.69292929292925  L 7.944488080808114 0.4708072727273134  C 8.237987593186205 0.2037523416621525  8.686456851258242 0.2037523416621525  8.979956363636347 0.4708072727273134  L 16.924444444444447 7.69292929292925  L 14.616565656565655 7.69292929292925  Z M 9.231515151515183 9.231515151515225  L 7.692929292929264 9.231515151515225  L 7.692929292929264 13.847272727272752  L 9.231515151515183 13.847272727272752  L 9.231515151515183 9.231515151515225  Z " fill-rule="evenodd" />
    </mask>
  </defs>
  <g transform="matrix(1 0 0 1 -20 -14 )">
    <path d="M 14.616565656565655 7.69292929292925  L 14.616565656565655 14.616565656565626  C 14.616565656565655 15.041434409566818  14.27214148027386 15.385858585858557  13.847272727272696 15.385858585858557  L 3.077171717171744 15.385858585858557  C 2.6523029641705875 15.385858585858557  2.307878787878792 15.041434409566818  2.307878787878792 14.616565656565626  L 2.307878787878792 7.69292929292925  L 0 7.69292929292925  L 7.944488080808114 0.4708072727273134  C 8.237987593186205 0.2037523416621525  8.686456851258242 0.2037523416621525  8.979956363636347 0.4708072727273134  L 16.924444444444447 7.69292929292925  L 14.616565656565655 7.69292929292925  Z M 9.231515151515183 9.231515151515225  L 7.692929292929264 9.231515151515225  L 7.692929292929264 13.847272727272752  L 9.231515151515183 13.847272727272752  L 9.231515151515183 9.231515151515225  Z " fill-rule="nonzero" fill="rgba(37, 97, 239, 1)" stroke="none" transform="matrix(1 0 0 1 20 14 )" class="fill" />
    <path d="M 14.616565656565655 7.69292929292925  L 14.616565656565655 14.616565656565626  C 14.616565656565655 15.041434409566818  14.27214148027386 15.385858585858557  13.847272727272696 15.385858585858557  L 3.077171717171744 15.385858585858557  C 2.6523029641705875 15.385858585858557  2.307878787878792 15.041434409566818  2.307878787878792 14.616565656565626  L 2.307878787878792 7.69292929292925  L 0 7.69292929292925  L 7.944488080808114 0.4708072727273134  C 8.237987593186205 0.2037523416621525  8.686456851258242 0.2037523416621525  8.979956363636347 0.4708072727273134  L 16.924444444444447 7.69292929292925  L 14.616565656565655 7.69292929292925  Z " stroke-width="0" stroke-dasharray="0" stroke="rgba(255, 255, 255, 0)" fill="none" transform="matrix(1 0 0 1 20 14 )" class="stroke" mask="url(#Clip224)" />
    <path d="M 9.231515151515183 9.231515151515225  L 7.692929292929264 9.231515151515225  L 7.692929292929264 13.847272727272752  L 9.231515151515183 13.847272727272752  L 9.231515151515183 9.231515151515225  Z " stroke-width="0" stroke-dasharray="0" stroke="rgba(255, 255, 255, 0)" fill="none" transform="matrix(1 0 0 1 20 14 )" class="stroke" mask="url(#Clip224)" />
  </g>
</svg>