<?xml version="1.0" encoding="utf-8"?>
<svg version="1.1" xmlns:xlink="http://www.w3.org/1999/xlink" width="10px" height="16px" xmlns="http://www.w3.org/2000/svg">
  <defs>
    <pattern id="BGPattern" patternUnits="userSpaceOnUse" alignment="0 0" imageRepeat="None" />
    <mask fill="white" id="Clip198">
      <path d="M 9.210789473684208 14.1875  L 3.348947368421051 8  L 9.210789473684208 1.8125  L 7.536315789473683 0.045000000000001705  L 0 8  L 7.53631578947369 15.954999999999998  L 9.210789473684208 14.1875  Z " fill-rule="evenodd" />
    </mask>
  </defs>
  <g transform="matrix(1 0 0 1 -30 -68 )">
    <path d="M 9.210789473684208 14.1875  L 3.348947368421051 8  L 9.210789473684208 1.8125  L 7.536315789473683 0.045000000000001705  L 0 8  L 7.53631578947369 15.954999999999998  L 9.210789473684208 14.1875  Z " fill-rule="nonzero" fill="rgba(51, 51, 51, 1)" stroke="none" transform="matrix(1 0 0 1 30 68 )" class="fill" />
    <path d="M 9.210789473684208 14.1875  L 3.348947368421051 8  L 9.210789473684208 1.8125  L 7.536315789473683 0.045000000000001705  L 0 8  L 7.53631578947369 15.954999999999998  L 9.210789473684208 14.1875  Z " stroke-width="0" stroke-dasharray="0" stroke="rgba(255, 255, 255, 0)" fill="none" transform="matrix(1 0 0 1 30 68 )" class="stroke" mask="url(#Clip198)" />
  </g>
</svg>