<?xml version="1.0" encoding="utf-8"?>
<svg version="1.1" xmlns:xlink="http://www.w3.org/1999/xlink" width="16px" height="16px" xmlns="http://www.w3.org/2000/svg">
  <defs>
    <pattern id="BGPattern" patternUnits="userSpaceOnUse" alignment="0 0" imageRepeat="None" />
    <mask fill="white" id="Clip197">
      <path d="M 2 2  L 14 2  L 14 14  L 2 14  L 2 2  Z M 16 1.7777777777777777  C 16 0.7955555555555556  15.204444444444444 0  14.222222222222221 0  L 1.7777777777777777 0  C 0.7955555555555556 0  0 0.7955555555555556  0 1.7777777777777777  L 0 14.222222222222221  C 0 15.204444444444444  0.7955555555555556 16  1.7777777777777777 16  L 14.222222222222221 16  C 15.204444444444444 16  16 15.204444444444444  16 14.222222222222221  L 16 1.7777777777777777  Z " fill-rule="evenodd" />
    </mask>
  </defs>
  <g>
    <path d="M 2 2  L 14 2  L 14 14  L 2 14  L 2 2  Z M 16 1.7777777777777777  C 16 0.7955555555555556  15.204444444444444 0  14.222222222222221 0  L 1.7777777777777777 0  C 0.7955555555555556 0  0 0.7955555555555556  0 1.7777777777777777  L 0 14.222222222222221  C 0 15.204444444444444  0.7955555555555556 16  1.7777777777777777 16  L 14.222222222222221 16  C 15.204444444444444 16  16 15.204444444444444  16 14.222222222222221  L 16 1.7777777777777777  Z " fill-rule="nonzero" fill="rgba(204, 204, 204, 1)" stroke="none" class="fill" />
    <path d="M 2 2  L 14 2  L 14 14  L 2 14  L 2 2  Z " stroke-width="0" stroke-dasharray="0" stroke="rgba(255, 255, 255, 0)" fill="none" class="stroke" mask="url(#Clip197)" />
    <path d="M 16 1.7777777777777777  C 16 0.7955555555555556  15.204444444444444 0  14.222222222222221 0  L 1.7777777777777777 0  C 0.7955555555555556 0  0 0.7955555555555556  0 1.7777777777777777  L 0 14.222222222222221  C 0 15.204444444444444  0.7955555555555556 16  1.7777777777777777 16  L 14.222222222222221 16  C 15.204444444444444 16  16 15.204444444444444  16 14.222222222222221  L 16 1.7777777777777777  Z " stroke-width="0" stroke-dasharray="0" stroke="rgba(255, 255, 255, 0)" fill="none" class="stroke" mask="url(#Clip197)" />
  </g>
</svg>