<?xml version="1.0" encoding="utf-8"?>
<svg version="1.1" xmlns:xlink="http://www.w3.org/1999/xlink" width="16px" height="15px" xmlns="http://www.w3.org/2000/svg">
  <defs>
    <pattern id="BGPattern" patternUnits="userSpaceOnUse" alignment="0 0" imageRepeat="None" />
    <mask fill="white" id="Clip238">
      <path d="M 11.199999999999989 1.5999999999999943  L 11.199999999999989 0  L 16 0  L 16 4.800000000000011  L 14.399999999999977 4.800000000000011  L 14.399999999999977 1.5999999999999943  L 11.199999999999989 1.5999999999999943  Z M 0 4.800000000000011  L 0 0  L 4.800000000000011 0  L 4.800000000000011 1.5999999999999943  L 1.6000000000000227 1.5999999999999943  L 1.6000000000000227 4.800000000000011  L 0 4.800000000000011  Z M 11.199999999999989 12.800000000000011  L 14.399999999999977 12.800000000000011  L 14.399999999999977 9.599999999999994  L 16 9.599999999999994  L 16 14.400000000000006  L 11.199999999999989 14.400000000000006  L 11.199999999999989 12.800000000000011  Z M 1.6000000000000227 9.599999999999994  L 1.6000000000000227 12.800000000000011  L 4.800000000000011 12.800000000000011  L 4.800000000000011 14.400000000000006  L 0 14.400000000000006  L 0 9.599999999999994  L 1.6000000000000227 9.599999999999994  Z " fill-rule="evenodd" />
    </mask>
  </defs>
  <g transform="matrix(1 0 0 1 -348 -316 )">
    <path d="M 11.199999999999989 1.5999999999999943  L 11.199999999999989 0  L 16 0  L 16 4.800000000000011  L 14.399999999999977 4.800000000000011  L 14.399999999999977 1.5999999999999943  L 11.199999999999989 1.5999999999999943  Z M 0 4.800000000000011  L 0 0  L 4.800000000000011 0  L 4.800000000000011 1.5999999999999943  L 1.6000000000000227 1.5999999999999943  L 1.6000000000000227 4.800000000000011  L 0 4.800000000000011  Z M 11.199999999999989 12.800000000000011  L 14.399999999999977 12.800000000000011  L 14.399999999999977 9.599999999999994  L 16 9.599999999999994  L 16 14.400000000000006  L 11.199999999999989 14.400000000000006  L 11.199999999999989 12.800000000000011  Z M 1.6000000000000227 9.599999999999994  L 1.6000000000000227 12.800000000000011  L 4.800000000000011 12.800000000000011  L 4.800000000000011 14.400000000000006  L 0 14.400000000000006  L 0 9.599999999999994  L 1.6000000000000227 9.599999999999994  Z " fill-rule="nonzero" fill="rgba(255, 255, 255, 1)" stroke="none" transform="matrix(1 0 0 1 348 316 )" class="fill" />
    <path d="M 11.199999999999989 1.5999999999999943  L 11.199999999999989 0  L 16 0  L 16 4.800000000000011  L 14.399999999999977 4.800000000000011  L 14.399999999999977 1.5999999999999943  L 11.199999999999989 1.5999999999999943  Z " stroke-width="0" stroke-dasharray="0" stroke="rgba(255, 255, 255, 0)" fill="none" transform="matrix(1 0 0 1 348 316 )" class="stroke" mask="url(#Clip238)" />
    <path d="M 0 4.800000000000011  L 0 0  L 4.800000000000011 0  L 4.800000000000011 1.5999999999999943  L 1.6000000000000227 1.5999999999999943  L 1.6000000000000227 4.800000000000011  L 0 4.800000000000011  Z " stroke-width="0" stroke-dasharray="0" stroke="rgba(255, 255, 255, 0)" fill="none" transform="matrix(1 0 0 1 348 316 )" class="stroke" mask="url(#Clip238)" />
    <path d="M 11.199999999999989 12.800000000000011  L 14.399999999999977 12.800000000000011  L 14.399999999999977 9.599999999999994  L 16 9.599999999999994  L 16 14.400000000000006  L 11.199999999999989 14.400000000000006  L 11.199999999999989 12.800000000000011  Z " stroke-width="0" stroke-dasharray="0" stroke="rgba(255, 255, 255, 0)" fill="none" transform="matrix(1 0 0 1 348 316 )" class="stroke" mask="url(#Clip238)" />
    <path d="M 1.6000000000000227 9.599999999999994  L 1.6000000000000227 12.800000000000011  L 4.800000000000011 12.800000000000011  L 4.800000000000011 14.400000000000006  L 0 14.400000000000006  L 0 9.599999999999994  L 1.6000000000000227 9.599999999999994  Z " stroke-width="0" stroke-dasharray="0" stroke="rgba(255, 255, 255, 0)" fill="none" transform="matrix(1 0 0 1 348 316 )" class="stroke" mask="url(#Clip238)" />
  </g>
</svg>