<?xml version="1.0" encoding="utf-8"?>
<svg version="1.1" xmlns:xlink="http://www.w3.org/1999/xlink" width="16px" height="14px" xmlns="http://www.w3.org/2000/svg">
  <defs>
    <pattern id="BGPattern" patternUnits="userSpaceOnUse" alignment="0 0" imageRepeat="None" />
    <mask fill="white" id="Clip228">
      <path d="M 14.777777777777771 3.111111111111086  C 15.207332583201719 3.111111111111086  15.555555555555543 3.45933408346491  15.555555555555543 3.888888888888914  L 15.555555555555543 13.222222222222229  C 15.555555555555543 13.651777027646176  15.207332583201719 14  14.777777777777771 14  L 0.7777777777777715 14  C 0.34822297235382393 14  0 13.651777027646176  0 13.222222222222229  L 0 3.111111111111086  L 14.777777777777771 3.111111111111086  Z M 6.544222222222231 0  L 8.099777777777774 1.555555555555543  L 0 1.555555555555543  L 0 0.7777777777777715  C 0 0.34822297235382393  0.34822297235382393 0  0.7777777777777715 0  L 6.544222222222231 0  Z " fill-rule="evenodd" />
    </mask>
  </defs>
  <g transform="matrix(1 0 0 1 0 -14 )">
    <path d="M 14.777777777777771 3.111111111111086  C 15.207332583201719 3.111111111111086  15.555555555555543 3.45933408346491  15.555555555555543 3.888888888888914  L 15.555555555555543 13.222222222222229  C 15.555555555555543 13.651777027646176  15.207332583201719 14  14.777777777777771 14  L 0.7777777777777715 14  C 0.34822297235382393 14  0 13.651777027646176  0 13.222222222222229  L 0 3.111111111111086  L 14.777777777777771 3.111111111111086  Z M 6.544222222222231 0  L 8.099777777777774 1.555555555555543  L 0 1.555555555555543  L 0 0.7777777777777715  C 0 0.34822297235382393  0.34822297235382393 0  0.7777777777777715 0  L 6.544222222222231 0  Z " fill-rule="nonzero" fill="rgba(255, 199, 28, 1)" stroke="none" transform="matrix(1 0 0 1 0 14 )" class="fill" />
    <path d="M 14.777777777777771 3.111111111111086  C 15.207332583201719 3.111111111111086  15.555555555555543 3.45933408346491  15.555555555555543 3.888888888888914  L 15.555555555555543 13.222222222222229  C 15.555555555555543 13.651777027646176  15.207332583201719 14  14.777777777777771 14  L 0.7777777777777715 14  C 0.34822297235382393 14  0 13.651777027646176  0 13.222222222222229  L 0 3.111111111111086  L 14.777777777777771 3.111111111111086  Z " stroke-width="0" stroke-dasharray="0" stroke="rgba(255, 255, 255, 0)" fill="none" transform="matrix(1 0 0 1 0 14 )" class="stroke" mask="url(#Clip228)" />
    <path d="M 6.544222222222231 0  L 8.099777777777774 1.555555555555543  L 0 1.555555555555543  L 0 0.7777777777777715  C 0 0.34822297235382393  0.34822297235382393 0  0.7777777777777715 0  L 6.544222222222231 0  Z " stroke-width="0" stroke-dasharray="0" stroke="rgba(255, 255, 255, 0)" fill="none" transform="matrix(1 0 0 1 0 14 )" class="stroke" mask="url(#Clip228)" />
  </g>
</svg>